<svg width="199" height="43" viewBox="0 0 199 43" fill="none" xmlns="http://www.w3.org/2000/svg"><g clip-path="url(#clip0_1_2)"><path d="M188.671 7.20724C186.571 6.6293 184.163 6.74221 182.3 7.95516C181.097 8.72493 180.226 9.95608 179.833 11.3208C179.511 12.368 179.527 13.4559 179.542 14.5415C179.548 15.023 179.555 15.504 179.532 15.9808L179.322 15.9792C178.381 15.9723 177.441 15.9653 176.502 15.9868C176.512 17.0719 176.508 18.157 176.505 19.2411L176.504 19.4896C177.018 19.5001 177.532 19.499 178.046 19.498C178.547 19.4968 179.047 19.4958 179.547 19.5054C179.54 22.9748 179.542 26.4436 179.544 29.9126C179.544 31.358 179.545 32.8034 179.545 34.2489H183.916C183.916 33.0219 183.916 31.7948 183.916 30.5679C183.916 26.8787 183.915 23.1896 183.917 19.5006C186.049 19.4969 188.182 19.4981 190.317 19.4993C190.319 20.8819 190.318 22.2642 190.318 23.6463C190.317 25.3971 190.314 27.1476 190.321 28.8981C190.34 30.3576 190.589 31.9178 191.556 33.07C192.393 34.0899 193.72 34.5561 195.002 34.6508C196.354 34.7467 197.75 34.5816 199 34.0389V30.4537C198.64 30.694 198.23 30.8799 197.802 30.9878C197.218 31.1351 196.602 31.1369 196.04 30.9324C195.915 30.8871 195.793 30.8316 195.675 30.7655C195.052 30.4218 194.811 29.6861 194.731 29.022C194.643 28.268 194.651 27.5096 194.658 26.7516C194.662 26.377 194.667 26.0024 194.659 25.6284C194.658 24.9001 194.659 24.1719 194.659 23.4439C194.66 22.1304 194.66 20.8173 194.657 19.5042C194.714 19.5044 194.772 19.5045 194.83 19.5045C195.178 19.5048 195.525 19.5026 195.873 19.5002C195.931 19.4997 195.988 19.4993 196.046 19.4989C196.169 19.498 196.293 19.4971 196.415 19.4963C197.277 19.4906 198.139 19.4895 199 19.5248V15.9746C198.478 15.9764 197.956 15.9755 197.435 15.9745C196.515 15.9729 195.594 15.9712 194.674 15.9844C194.654 14.8893 194.657 13.7941 194.659 12.6992C194.661 11.9697 194.662 11.2402 194.658 10.511C194.141 10.6668 193.625 10.8262 193.109 10.9857C192.185 11.271 191.262 11.5562 190.332 11.821C190.311 12.6284 190.314 13.4363 190.317 14.244C190.319 14.821 190.321 15.3979 190.313 15.9746C189.538 15.9742 188.763 15.9744 187.988 15.9746C186.631 15.975 185.274 15.9753 183.917 15.9723C183.927 15.6099 183.922 15.2467 183.915 14.8835C183.905 14.1533 183.895 13.4229 183.999 12.6988C184.129 11.844 184.624 10.9894 185.458 10.6591C186.508 10.2281 187.682 10.5146 188.68 10.9541C188.677 10.4652 188.678 9.97622 188.679 9.48735C188.681 8.72704 188.682 7.96691 188.671 7.20724Z" fill="#737373"/><path d="M91.1101 9.06734C90.526 8.3777 89.5717 8.07659 88.6903 8.21015C87.476 8.34857 86.4404 9.45223 86.4732 10.6907C86.4222 11.8672 87.368 12.9223 88.5033 13.1263C89.5972 13.3655 90.8526 12.9028 91.4135 11.9073C91.9211 11.0245 91.7949 9.82254 91.1101 9.06734Z" fill="#737373"/><path d="M61.5417 8.75165H55.1832C55.1807 17.2507 55.182 25.7498 55.1832 34.2489C55.7377 34.2484 56.2926 34.2486 56.8475 34.249C57.68 34.2495 58.5126 34.2499 59.3453 34.2477C59.3432 31.9645 59.3436 29.6814 59.344 27.3983C59.3443 25.8762 59.3446 24.3542 59.3441 22.8322C59.3496 21.7965 59.3467 20.7606 59.3437 19.7246C59.3388 18.0118 59.3339 16.2988 59.3672 14.5868C59.4461 14.7119 59.5189 14.8418 59.5869 14.9754C60.5634 17.3941 61.537 19.814 62.5107 22.2341C64.1232 26.242 65.7358 30.2501 67.3612 34.2526C67.7987 34.2454 68.2361 34.2474 68.6735 34.2495C69.2837 34.2523 69.8938 34.2551 70.5034 34.2331C71.9253 30.5962 73.3675 26.9671 74.8096 23.3381C75.9152 20.5557 77.0209 17.7733 78.1174 14.9875C78.1841 14.8467 78.2606 14.7107 78.3468 14.5796C78.3663 14.8613 78.376 15.143 78.3736 15.4246C78.3698 18.1687 78.371 20.9126 78.3721 23.6564C78.3737 27.184 78.3751 30.7116 78.3663 34.2392C79.3251 34.2527 80.284 34.2506 81.2431 34.2485C81.7548 34.2475 82.2666 34.2464 82.7785 34.2477C82.7783 33.0283 82.7781 31.809 82.7779 30.5896C82.7768 23.3111 82.7756 16.0326 82.7798 8.75408C82.0812 8.75573 81.3826 8.75384 80.684 8.75194C79.343 8.7483 78.002 8.74467 76.6615 8.76621C75.132 12.5728 73.582 16.3706 72.032 20.1683C71.0216 22.6439 70.0111 25.1196 69.0064 27.5978C68.6701 26.8076 68.3568 26.0077 68.0436 25.2079C67.8625 24.7456 67.6815 24.2833 67.4959 23.8229C66.584 21.51 65.6694 19.198 64.7548 16.8861C63.6823 14.175 62.6099 11.4641 61.5417 8.75165Z" fill="#737373"/><path d="M107.217 15.977C105.108 15.3809 102.833 15.3566 100.722 15.9576C98.7859 16.5162 97.0084 17.7048 95.872 19.3839C94.5158 21.3521 94.0361 23.8108 94.143 26.1675C94.2486 28.4343 95.1422 30.6975 96.7886 32.2843C98.3039 33.7559 100.391 34.5488 102.484 34.6593C104.53 34.76 106.673 34.4857 108.46 33.4221C108.452 32.7248 108.453 32.0276 108.454 31.3304C108.455 30.7078 108.456 30.0852 108.451 29.4627C107.298 30.3053 105.953 30.9087 104.528 31.0726C103.085 31.182 101.54 30.8346 100.437 29.8549C99.376 28.9503 98.8114 27.5868 98.6706 26.2221C98.4824 24.4786 98.7349 22.5857 99.8289 21.1603C100.68 20.0105 102.037 19.2723 103.46 19.1436C105.252 18.9177 107.041 19.6 108.451 20.677C108.456 20.0684 108.455 19.4599 108.454 18.8514C108.452 18.0663 108.45 17.2813 108.464 16.4967C108.073 16.2672 107.652 16.0985 107.217 15.977Z" fill="#737373"/><path fill-rule="evenodd" clip-rule="evenodd" d="M136.603 16.3814C134.656 15.4951 132.443 15.3761 130.344 15.6432C128.14 15.9213 125.995 16.9581 124.597 18.715C123.319 20.2837 122.697 22.2992 122.579 24.2989C122.403 26.6556 122.795 29.1567 124.18 31.1236C125.359 32.821 127.22 33.9879 129.231 34.4177C130.911 34.771 132.67 34.7722 134.35 34.4226C136.315 34.0182 138.152 32.9303 139.369 31.3252C140.559 29.8135 141.156 27.9074 141.291 26.0048C141.428 24.0561 141.232 22.0381 140.421 20.2412C139.663 18.5536 138.294 17.1439 136.603 16.3814ZM135.305 20.3541C134.361 19.3986 132.962 19.027 131.649 19.1133C130.603 19.1715 129.547 19.5248 128.773 20.2485C127.704 21.2161 127.216 22.6586 127.083 24.0609C126.938 25.6029 127.043 27.2286 127.748 28.6347C128.295 29.7262 129.301 30.5833 130.488 30.8954C131.653 31.1977 132.923 31.1722 134.051 30.7388C135.016 30.3623 135.781 29.5683 136.199 28.6286C136.83 27.2347 136.892 25.6673 136.815 24.1629C136.707 22.7885 136.316 21.3473 135.305 20.3541Z" fill="#737373"/><path d="M154.533 16.3097C152.62 15.5849 150.503 15.3238 148.481 15.6796C146.773 15.9844 145.096 16.8719 144.131 18.352C143.286 19.6219 143.176 21.2599 143.527 22.7132C143.762 23.6991 144.364 24.5733 145.159 25.1937C146.06 25.8846 147.101 26.3326 148.138 26.7786C148.404 26.893 148.67 27.0072 148.933 27.1255L149.003 27.1585C149.669 27.4711 150.363 27.7978 150.842 28.3748C151.371 29.1495 151.211 30.4158 150.32 30.859C149.388 31.3058 148.302 31.2985 147.302 31.1358C145.867 30.8881 144.511 30.2773 143.336 29.4238C143.327 30.2621 143.328 31.1004 143.329 31.939C143.33 32.5093 143.331 33.0797 143.329 33.6503C144.726 34.272 146.254 34.5718 147.773 34.6702C149.914 34.7503 152.241 34.3327 153.857 32.8223C155.55 31.3265 155.958 28.6759 154.995 26.6702C154.483 25.5993 153.502 24.8562 152.49 24.288C151.913 23.9536 151.295 23.6984 150.678 23.4433C149.924 23.1314 149.169 22.8196 148.487 22.3636C147.763 21.9034 147.557 20.8956 147.854 20.1271C148.226 19.35 149.125 19.004 149.942 18.9724C151.564 18.9153 153.197 19.4095 154.534 20.3286C154.533 19.7543 154.534 19.18 154.534 18.6057C154.534 17.8406 154.534 17.0754 154.533 16.3097Z" fill="#737373"/><path fill-rule="evenodd" clip-rule="evenodd" d="M171.681 16.5186C169.69 15.5133 167.373 15.3663 165.192 15.637C163.432 15.8629 161.703 16.5307 160.361 17.7097C158.721 19.1217 157.76 21.198 157.477 23.3215C157.207 25.4451 157.298 27.6815 158.165 29.669C158.995 31.619 160.633 33.2022 162.606 33.9781C164.552 34.7443 166.715 34.8305 168.763 34.499C170.858 34.153 172.842 33.0517 174.138 31.3568C175.524 29.6059 176.12 27.3403 176.117 25.133C176.147 23.6554 175.963 22.1571 175.437 20.7693C174.764 18.9554 173.417 17.3867 171.681 16.5186ZM169.875 20.1501C168.925 19.316 167.607 19.0306 166.372 19.1169C165.163 19.1848 163.964 19.7058 163.181 20.6479C162.324 21.6569 161.956 22.9889 161.856 24.2867C161.754 25.6272 161.856 27.015 162.375 28.268C162.806 29.3194 163.625 30.2337 164.681 30.6805C165.659 31.1018 166.762 31.1771 167.809 31.0205C168.783 30.8771 169.728 30.4109 170.363 29.646C170.993 28.8847 171.326 27.9255 171.493 26.964C171.705 25.6733 171.707 24.3438 171.457 23.0592C171.235 21.9641 170.75 20.8761 169.875 20.1501Z" fill="#737373"/><path d="M122.298 15.9128C120.981 15.4696 119.448 15.5303 118.24 16.2551C117.144 16.8755 116.448 17.9804 115.981 19.1181C115.983 18.6529 115.982 18.188 115.982 17.7232C115.982 17.1422 115.981 16.5615 115.985 15.9807C114.545 15.9734 113.107 15.9661 111.668 15.9844C111.673 19.5357 111.672 23.0874 111.671 26.6392C111.671 29.1758 111.67 31.7124 111.672 34.2488H115.982C115.983 32.307 115.983 30.3652 115.982 28.4233C115.982 27.4525 115.982 26.4815 115.982 25.5106C115.947 24.2455 116.051 22.9366 116.605 21.7795C117.115 20.6868 118.098 19.7337 119.339 19.5928C120.357 19.4896 121.432 19.7288 122.295 20.2873C122.296 19.639 122.296 18.9906 122.296 18.3423C122.295 17.5324 122.295 16.7226 122.298 15.9128Z" fill="#737373"/><path d="M87.5947 15.9772C87.3532 15.9785 87.1117 15.9797 86.8702 15.9808C86.872 19.0259 86.8717 22.0707 86.8714 25.1154C86.8711 28.16 86.8709 31.2045 86.8726 34.2489H91.2132C91.2157 31.8144 91.2146 29.3797 91.2135 26.9449C91.212 23.2926 91.2103 19.6401 91.2206 15.988C90.0124 15.9647 88.8032 15.971 87.5947 15.9772Z" fill="#737373"/><path fill-rule="evenodd" clip-rule="evenodd" d="M0 22.5311C6.73855 22.5336 13.4771 22.5299 20.2157 22.5336C20.2168 29.2721 20.2157 36.0095 20.2157 42.748H0V22.5311Z" fill="#00A4EF"/><path fill-rule="evenodd" clip-rule="evenodd" d="M22.2798 0.252594H42.4955C42.4955 6.99115 42.4968 13.7297 42.4943 20.4683C35.757 20.4671 29.0185 20.4683 22.2811 20.4683C22.2787 13.7297 22.2798 6.99115 22.2798 0.252594Z" fill="#7FBA00"/><path fill-rule="evenodd" clip-rule="evenodd" d="M0 0.252594H20.2157C20.2145 6.99115 20.2157 13.7297 20.2145 20.4683C13.4771 20.4683 6.73856 20.4683 0 20.4683V0.252594Z" fill="#F25022"/><path fill-rule="evenodd" clip-rule="evenodd" d="M22.2811 22.5336C29.0183 22.5312 35.7569 22.5323 42.4955 22.5323V42.748H22.2798C22.2811 36.0095 22.2786 29.271 22.2811 22.5336Z" fill="#FFB900"/></g><defs><clipPath id="clip0_1_2"><rect width="199" height="42.495" fill="#fff" transform="translate(0 0.252594)"/></clipPath></defs></svg>