<svg width="140" height="39" viewBox="0 0 140 39" fill="none" xmlns="http://www.w3.org/2000/svg"><g clip-path="url(#clip0_2_53)"><path d="M26.9637 16.3684H15.198C14.8948 16.3684 14.6499 16.6133 14.6499 16.9165V22.6691C14.6499 22.9723 14.8948 23.2211 15.198 23.2211H19.7884V30.3692C19.7884 30.3692 18.7584 30.719 15.9093 30.719C12.5471 30.719 7.85163 29.4907 7.85163 19.167C7.85163 8.84327 12.7414 7.48284 17.3319 7.48284C21.3043 7.48284 23.0185 8.18249 24.1068 8.52065C24.4489 8.6256 24.7637 8.28355 24.7637 7.98037L26.0775 2.42203C26.0775 2.27822 26.0309 2.10719 25.8676 1.99447C25.4245 1.67963 22.727 0.167606 15.9093 0.167606C8.05764 0.163719 0 3.50649 0 19.5674C0 35.6282 9.22372 38.0226 16.9976 38.0226C23.4344 38.0226 27.3369 35.2706 27.3369 35.2706C27.4963 35.1812 27.5157 34.9558 27.5157 34.8547V16.9165C27.5157 16.6133 27.2708 16.3684 26.9676 16.3684H26.9637Z" fill="#100E0F"/><path d="M87.5962 2.08762C87.5962 1.78055 87.3552 1.53568 87.052 1.53568H80.4287C80.1255 1.53568 79.8806 1.78444 79.8806 2.08762V14.8873H69.5569V2.08762C69.5569 1.78055 69.312 1.53568 69.0088 1.53568H62.3855C62.0823 1.53568 61.8374 1.78444 61.8374 2.08762V36.7514C61.8374 37.0585 62.0823 37.3072 62.3855 37.3072H69.0088C69.312 37.3072 69.5569 37.0585 69.5569 36.7514V21.9266H79.8806L79.8612 36.7514C79.8612 37.0585 80.106 37.3072 80.4092 37.3072H87.0481C87.3513 37.3072 87.5923 37.0585 87.5962 36.7514V2.08762Z" fill="#100E0F"/><path d="M39.4642 6.63534C39.4642 4.24876 37.5518 2.32083 35.1924 2.32083C32.833 2.32083 30.9207 4.24876 30.9207 6.63534C30.9207 9.02193 32.833 10.9499 35.1924 10.9499C37.5518 10.9499 39.4642 9.01804 39.4642 6.63534Z" fill="#100E0F"/><path d="M38.9899 29.44V13.4414C38.9899 13.1382 38.7451 12.8894 38.4419 12.8894H31.838C31.5348 12.8894 31.2627 13.2004 31.2627 13.5075V36.4327C31.2627 37.1051 31.6825 37.3072 32.2267 37.3072H38.1776C38.8306 37.3072 38.9899 36.9885 38.9899 36.421V29.4439V29.44Z" fill="#100E0F"/><path d="M112.768 12.94H106.195C105.892 12.94 105.647 13.1888 105.647 13.4958V30.4934C105.647 30.4934 103.976 31.7139 101.609 31.7139C99.2415 31.7139 98.6079 30.6373 98.6079 28.3168V13.4958C98.6079 13.1888 98.363 12.94 98.0599 12.94H91.3899C91.0906 12.94 90.8418 13.1888 90.8418 13.4958V29.4401C90.8418 36.3316 94.6821 38.0186 99.9683 38.0186C104.302 38.0186 107.801 35.6242 107.801 35.6242C107.801 35.6242 107.968 36.8875 108.042 37.0352C108.115 37.1829 108.314 37.3345 108.524 37.3345L112.768 37.315C113.067 37.315 113.316 37.0663 113.316 36.7631V13.4958C113.316 13.1888 113.067 12.94 112.764 12.94H112.768Z" fill="#100E0F"/><path d="M130.737 12.1587C127.002 12.1587 124.464 13.8262 124.464 13.8262V2.08762C124.464 1.78055 124.219 1.53568 123.916 1.53568H117.273C116.97 1.53568 116.725 1.78444 116.725 2.08762V36.7514C116.725 37.0585 116.97 37.3072 117.273 37.3072H121.883C122.089 37.3072 122.248 37.1984 122.365 37.0118C122.478 36.8253 122.645 35.4143 122.645 35.4143C122.645 35.4143 125.362 37.9874 130.504 37.9874C136.541 37.9874 140.004 34.9245 140.004 24.2393C140.004 13.5541 134.473 12.1587 130.737 12.1587ZM128.145 31.6906C125.863 31.6206 124.32 30.5867 124.32 30.5867V19.61C124.32 19.61 125.844 18.6732 127.717 18.5061C130.084 18.2923 132.366 19.0075 132.366 24.6552C132.366 30.61 131.336 31.7839 128.149 31.6906H128.145Z" fill="#100E0F"/><path d="M58.0282 12.8816H53.0607C53.0607 12.8816 53.0529 6.32048 53.0529 6.3166C53.0529 6.06783 52.9247 5.94345 52.637 5.94345H45.866C45.6017 5.94345 45.4617 6.06006 45.4617 6.31271V13.0954C45.4617 13.0954 42.0684 13.9156 41.8391 13.9817C41.6098 14.0477 41.4426 14.2576 41.4426 14.5103V18.7743C41.4426 19.0813 41.6875 19.3262 41.9907 19.3262H45.4617V29.58C45.4617 37.1984 50.8063 37.9447 54.4095 37.9447C56.0575 37.9447 58.0282 37.416 58.3547 37.2956C58.553 37.2217 58.6657 37.0196 58.6657 36.798V32.1104C58.6696 31.8033 58.413 31.5584 58.1215 31.5584C57.83 31.5584 57.0915 31.675 56.3296 31.675C53.8886 31.675 53.0607 30.54 53.0607 29.0708C53.0607 27.6015 53.0607 19.3262 53.0607 19.3262H58.0282C58.3314 19.3262 58.5763 19.0774 58.5763 18.7743V13.4336C58.5763 13.1265 58.3314 12.8816 58.0282 12.8816Z" fill="#100E0F"/></g><defs><clipPath id="clip0_2_53"><rect width="140" height="37.863" fill="#fff" transform="translate(0 0.163605)"/></clipPath></defs></svg>