<svg width="147" height="40" viewBox="0 0 147 40" fill="none" xmlns="http://www.w3.org/2000/svg"><g clip-path="url(#clip0_2_63)"><path fill-rule="evenodd" clip-rule="evenodd" d="M146.241 6.77762C145.722 6.1955 145.026 5.89954 144.085 5.89954C143.145 5.89954 142.427 6.21118 141.928 6.85406C141.428 7.47538 141.169 8.40834 141.169 9.63138V18.4984C140.013 17.2519 138.811 16.3581 137.592 15.7564C136.752 15.3607 135.855 15.0982 134.934 14.9783C134.325 14.8975 133.712 14.8582 133.098 14.8607C130.042 14.8607 127.567 15.9112 125.667 18.0123C123.79 20.1135 122.849 23.0299 122.849 26.7775C122.849 28.5493 123.09 30.2016 123.568 31.7167C124.05 33.2298 124.725 34.5547 125.646 35.6798C126.535 36.7753 127.652 37.6647 128.919 38.2866C130.197 38.8968 131.597 39.2085 133.013 39.198C133.69 39.198 134.331 39.1411 134.928 39.0255C135.33 38.9667 135.706 38.8687 136.089 38.7511C137.021 38.4421 137.903 37.9969 138.705 37.4301C139.604 36.7705 140.427 36.0147 141.161 35.1761V35.7582C141.161 36.8656 141.441 37.7025 141.98 38.3062C142.541 38.8883 143.241 39.198 144.078 39.198C144.936 39.198 145.634 38.9059 146.175 38.3454C146.71 37.7613 146.992 36.9067 146.992 35.7621V9.32562C147 8.2143 146.741 7.35778 146.241 6.77762ZM140.03 31.2325C139.491 32.3595 138.77 33.1965 137.894 33.7413C136.992 34.2882 136.012 34.5567 134.934 34.5567H134.915C133.867 34.5615 132.841 34.2656 131.957 33.7041C131.057 33.12 130.34 32.2655 129.823 31.1385C129.305 29.9919 129.046 28.6101 129.046 26.9774C129.046 25.4407 129.284 24.0825 129.785 22.9359C130.266 21.7677 130.963 20.8739 131.843 20.2546C132.745 19.6117 133.745 19.3197 134.877 19.3197H134.936C135.997 19.3197 136.975 19.6293 137.874 20.2311C138.774 20.8347 139.491 21.7128 140.03 22.8575C140.569 24.0041 140.83 25.3859 140.83 26.9774C140.83 28.6865 140.569 30.1075 140.03 31.2325ZM120.634 31.4873C120.254 31.1581 119.734 30.9817 119.095 30.9817C118.515 30.9817 118.076 31.1189 117.757 31.3717C116.977 32.0695 116.359 32.6339 115.875 33.0416C115.401 33.4317 114.856 33.8197 114.282 34.1863C113.739 34.5337 113.147 34.7974 112.526 34.9683C111.867 35.1439 111.188 35.2283 110.507 35.2192C110.348 35.2192 110.187 35.2192 110.046 35.1996C109.144 35.1521 108.267 34.885 107.492 34.4215C106.571 33.8981 105.854 33.1239 105.293 32.1106C104.754 31.0601 104.474 29.8566 104.456 28.4944H116.5C118.117 28.4944 119.374 28.2592 120.254 27.8339C121.155 27.3655 121.593 26.3933 121.593 24.8978C121.593 23.2651 121.153 21.6717 120.295 20.0958C119.437 18.5376 118.159 17.2558 116.422 16.2679C114.701 15.2762 112.645 14.7901 110.228 14.7901H110.05C108.272 14.8097 106.634 15.1037 105.178 15.6466C103.729 16.1911 102.413 17.0392 101.318 18.1339C100.273 19.2602 99.472 20.5909 98.9663 22.0421C98.4115 23.628 98.1331 25.2973 98.1431 26.9774C98.1431 30.7504 99.2446 33.7041 101.44 35.8993C103.517 37.9808 106.393 39.0706 110.046 39.1862C110.248 39.2058 110.464 39.2058 110.687 39.2058C112.404 39.2058 113.941 38.9902 115.277 38.5453C116.616 38.0984 117.716 37.5516 118.598 36.893C119.472 36.2129 120.132 35.5132 120.571 34.7958C121.01 34.0765 121.232 33.4336 121.232 32.9083C121.232 32.3007 121.036 31.8166 120.634 31.4873ZM106.256 20.5015C107.236 19.4706 108.492 18.9649 110.03 18.9649H110.054C111.649 18.9649 112.949 19.4706 113.927 20.48C114.907 21.4933 115.485 23.028 115.626 25.086H104.458C104.656 23.0672 105.258 21.5305 106.256 20.5015ZM94.4073 30.9797C93.8095 30.9797 93.3705 31.1169 93.051 31.3678C92.2925 32.0675 91.6535 32.632 91.1733 33.0397C90.6931 33.4277 90.1737 33.8178 89.5936 34.1843C89.0173 34.5351 88.4352 34.8076 87.8178 34.9644C87.1598 35.1414 86.4803 35.2258 85.799 35.2153C85.6422 35.2153 85.4815 35.2153 85.3404 35.1957C84.4381 35.1481 83.5609 34.8817 82.7845 34.4195C81.8565 33.8682 81.1025 33.0667 80.6089 32.1067C80.0484 31.0581 79.7681 29.8527 79.7465 28.4925H91.8103C93.4077 28.4925 94.6641 28.2573 95.5637 27.83C96.4418 27.3635 96.8848 26.3913 96.8848 24.8959C96.8848 23.2612 96.4634 21.6677 95.6049 20.0939C94.7464 18.5357 93.4489 17.2519 91.7319 16.264C90.011 15.2742 87.9354 14.7881 85.5423 14.7881H85.3404C83.5646 14.8077 81.9476 15.1017 80.4678 15.6447C79.023 16.1829 77.7137 17.0312 76.6321 18.1299C75.5718 19.2493 74.762 20.5816 74.2566 22.0382C73.7003 23.6237 73.4218 25.2933 73.4334 26.9735C73.4334 30.7465 74.5545 33.7002 76.7497 35.8954C78.8273 37.9789 81.683 39.0667 85.3384 39.1823C85.5579 39.2019 85.7539 39.2019 85.9774 39.2019C87.7139 39.2019 89.2329 38.9883 90.5696 38.5433C91.9064 38.0945 93.0079 37.5496 93.884 36.8911C94.7856 36.209 95.4226 35.5112 95.8636 34.7939C96.3007 34.0745 96.5241 33.4317 96.5241 32.9044C96.5241 32.3027 96.3223 31.8166 95.944 31.4873C95.5481 31.1541 95.0247 30.9797 94.4073 30.9797ZM81.5458 20.5015C82.5238 19.4706 83.7841 18.9649 85.3227 18.9649H85.3443C86.9397 18.9649 88.2392 19.4706 89.2173 20.48C90.2149 21.4933 90.7754 23.028 90.9362 25.086H79.7504C79.97 23.0672 80.5717 21.5305 81.5458 20.5015ZM12.8321 35.2192V20.9092C13.2476 20.9484 13.6494 20.9661 14.0689 20.9661C15.9902 20.975 17.8791 20.4717 19.5412 19.5078V35.2153C19.5412 36.5579 19.2217 37.5477 18.6004 38.2101C17.983 38.8687 17.1637 39.198 16.1661 39.198C15.1861 39.198 14.408 38.8687 13.769 38.1886C13.1516 37.53 12.8321 36.5383 12.8321 35.2192ZM70.8481 6.77958C70.3287 6.1955 69.6114 5.89954 68.7117 5.89954C67.7709 5.89954 67.0536 6.21118 66.5518 6.85406C66.0344 7.47538 65.7933 8.40834 65.7933 9.63138V18.4984C64.6369 17.2519 63.4413 16.3581 62.2182 15.7564C61.3784 15.3633 60.4835 15.1009 59.5644 14.9783C58.955 14.8973 58.3407 14.858 57.7259 14.8607C54.6703 14.8607 52.1732 15.9112 50.2975 18.0123C48.4179 20.1135 47.479 23.0299 47.479 26.7775C47.479 28.5493 47.7201 30.2016 48.1768 31.7167C48.6178 33.1597 49.331 34.505 50.2779 35.6798C51.1668 36.776 52.2838 37.6655 53.5511 38.2866C54.8292 38.8968 56.2293 39.2085 57.6456 39.198C58.3041 39.198 58.9431 39.1411 59.5605 39.0255C59.9623 38.9667 60.3406 38.8687 60.7208 38.7511C61.6533 38.4421 62.5351 37.9969 63.3374 37.4301C64.1547 36.846 64.9583 36.0875 65.7913 35.1761V35.7582C65.7913 36.8656 66.0736 37.7025 66.6126 38.3062C67.1516 38.8883 67.8728 39.198 68.7098 39.198C69.5271 39.198 70.2484 38.9059 70.7874 38.3454C71.3264 37.7613 71.5831 36.9067 71.5831 35.7621V9.32562C71.5851 8.2143 71.3479 7.35778 70.8501 6.77762L70.8481 6.77958ZM64.6545 31.2325C64.1175 32.3595 63.3962 33.1965 62.4985 33.7413C61.6204 34.2882 60.6189 34.5567 59.5644 34.5567H59.5448C58.4668 34.5567 57.4868 34.2647 56.5891 33.7041C55.6718 33.12 54.9721 32.2655 54.4527 31.1385C53.9353 29.9919 53.6746 28.6101 53.6746 26.9774C53.6746 25.4407 53.9157 24.0825 54.392 22.9359C54.8898 21.7677 55.5699 20.8739 56.4696 20.2546C57.3476 19.6117 58.3668 19.3197 59.486 19.3197H59.5644C60.6228 19.3197 61.6008 19.6293 62.4809 20.2311C63.4001 20.8347 64.1175 21.7128 64.6565 22.8575C65.1739 24.0041 65.4562 25.3859 65.4562 26.9774C65.4562 28.6865 65.172 30.1075 64.6545 31.2325ZM29.3902 18.1299V18.8708C30.4878 17.4694 31.6658 16.46 32.9456 15.7975C34.2432 15.1586 35.721 14.8254 37.3988 14.8254C39.0177 14.8254 40.476 15.1782 41.75 15.8563C42.9875 16.5004 43.9878 17.522 44.6057 18.7728C45.0271 19.5098 45.2878 20.3095 45.4054 21.166C45.5249 22.0009 45.5837 23.0887 45.5837 24.4117V35.5543C45.5837 36.7578 45.2838 37.6711 44.7252 38.2729C44.1686 38.8942 43.4277 39.2039 42.53 39.2039C41.6088 39.2039 40.8719 38.8942 40.2917 38.2552C39.7116 37.63 39.4313 36.7205 39.4313 35.5543V25.5721C39.4313 23.5905 39.151 22.0754 38.5924 21.0249C38.0338 19.9782 36.8931 19.451 35.2212 19.451C34.1197 19.451 33.124 19.7803 32.2224 20.4035C31.3029 21.0612 30.6066 21.9846 30.2271 23.0495C29.9272 23.9413 29.7881 25.5936 29.7881 28.0671V35.5504C29.7881 36.7735 29.4902 37.6672 28.912 38.2925C28.3318 38.8942 27.5948 39.2039 26.6736 39.2039C25.774 39.2039 25.0527 38.8942 24.4765 38.2552C23.8963 37.63 23.618 36.7205 23.618 35.5543V18.2279C23.618 17.0833 23.8787 16.2287 24.3981 15.6799C24.8959 15.1194 25.5937 14.8254 26.4953 14.8254C27.0343 14.8254 27.5145 14.943 27.9516 15.1958C28.3906 15.4467 28.7473 15.8171 29.01 16.3209C29.2687 16.8265 29.3902 17.4322 29.3902 18.1299ZM12.8694 0.927016C17.0246 -0.531224 21.758 -0.452824 25.3114 2.53814C25.972 3.13986 26.7285 3.90034 27.0284 4.79214C27.389 5.92306 25.772 4.67454 25.5506 4.5197C24.3902 3.78078 23.2338 3.15946 21.9363 2.73218C14.947 0.634976 8.33393 4.42562 4.22185 10.3174C2.50489 12.9163 1.38573 15.6603 0.470406 18.6709C0.368486 19.0002 0.290086 19.4294 0.109766 19.7195C-0.072514 20.0527 0.031366 18.8277 0.031366 18.7865C0.168566 17.5419 0.429246 16.3365 0.752646 15.1331C2.64797 8.71802 6.84041 3.3731 12.8713 0.923096L12.8694 0.927016ZM20.9171 12.4538C20.8809 13.7376 20.3455 14.9567 19.4246 15.8519C18.5038 16.7472 17.2701 17.248 15.9858 17.248C14.7014 17.248 13.4678 16.7472 12.5469 15.8519C11.626 14.9567 11.0906 13.7376 11.0544 12.4538C11.0358 11.7945 11.1496 11.1382 11.3891 10.5236C11.6285 9.90905 11.9888 9.34876 12.4486 8.87585C12.9083 8.40295 13.4582 8.02704 14.0658 7.77035C14.6733 7.51366 15.3262 7.38141 15.9858 7.38141C16.6453 7.38141 17.2982 7.51366 17.9057 7.77035C18.5133 8.02704 19.0632 8.40295 19.523 8.87585C19.9827 9.34876 20.343 9.90905 20.5825 10.5236C20.8219 11.1382 20.9357 11.7945 20.9171 12.4538Z" fill="#003A9B"/></g><defs><clipPath id="clip0_2_63"><rect width="147" height="39.2" fill="#fff"/></clipPath></defs></svg>