<svg width="170" height="61" viewBox="0 0 170 61" fill="none" xmlns="http://www.w3.org/2000/svg"><path d="M58.9437 49.1698L58.6831 50.007C58.3884 49.9432 58.1051 49.9163 57.8303 49.9234C56.9663 49.9305 56.5356 50.4064 56.5356 51.3427V51.9192H58.2978V52.8131H56.5356V58.9267H55.3656V52.8131H54.1389V52.0694L55.3656 51.9178V51.3144C55.3656 50.5707 55.5625 50.0013 55.9577 49.6004C56.3543 49.201 56.9393 48.997 57.7198 48.9885C58.1689 48.9885 58.5768 49.0494 58.9465 49.1656H58.9423L58.9437 49.1698Z" fill="#000"/><path d="M59.5783 53.4901C59.5783 52.9773 59.5443 52.4518 59.4805 51.9206H60.5982C60.6435 52.2337 60.6775 52.6034 60.6931 53.034H60.72C61.1237 52.1629 61.8588 51.7252 62.9241 51.7252C62.9963 51.7252 63.1309 51.7407 63.3235 51.7662L63.2555 52.7705C63.1649 52.7521 63.0218 52.7436 62.8292 52.7436C62.1577 52.7436 61.6435 52.9703 61.2852 53.4193C60.9268 53.8683 60.7497 54.4533 60.7497 55.1659V58.9238H59.5797V53.4859V53.4901H59.5783Z" fill="#000"/><path d="M70.7857 55.4067C70.7857 56.1319 70.6469 56.7764 70.3664 57.343C70.0874 57.9096 69.6837 58.3473 69.1553 58.6561C68.6269 58.9692 67.9966 59.1236 67.2614 59.1236C66.5263 59.1236 65.9073 58.9649 65.3746 58.6476C64.842 58.3303 64.4383 57.8926 64.1635 57.3345C63.8873 56.7764 63.7527 56.1305 63.7527 55.4067C63.7527 54.2862 64.0587 53.3952 64.6735 52.7309C65.2882 52.0665 66.1495 51.7351 67.2629 51.7351C68.0065 51.7351 68.6397 51.8895 69.1681 52.1954C69.6964 52.5042 70.0959 52.9306 70.3721 53.4816C70.6483 54.0327 70.7829 54.6743 70.7829 55.4095L70.7871 55.4053L70.7857 55.4067ZM64.9624 55.4067C64.9624 56.241 65.1508 56.9124 65.5319 57.4224C65.9129 57.9323 66.4909 58.1844 67.26 58.1844C68.0292 58.1844 68.6227 57.928 69.0066 57.4224C69.3919 56.9124 69.5845 56.241 69.5845 55.4067C69.5845 54.5723 69.3919 53.9052 69.0066 53.4108C68.6213 52.9164 68.0363 52.6671 67.26 52.6671C66.4838 52.6671 65.9016 52.9164 65.5234 53.4108C65.1466 53.9052 64.9582 54.5738 64.9582 55.4067H64.9624Z" fill="#000"/><path d="M72.2985 53.4901C72.2985 52.9773 72.2645 52.4518 72.2007 51.9206H73.3184C73.3637 52.1699 73.3977 52.4986 73.4133 52.9136H73.4402C73.6597 52.5666 73.9685 52.279 74.368 52.0609C74.7675 51.8427 75.2278 51.7294 75.7533 51.7294C76.3497 51.7294 76.837 51.8583 77.2138 52.1062C77.5906 52.3598 77.8668 52.7068 78.0396 53.1445H78.0665C78.3045 52.7025 78.6289 52.3598 79.0439 52.1062C79.4547 51.8526 79.9533 51.7294 80.5312 51.7294C81.1092 51.7294 81.5908 51.8583 81.9761 52.1062C82.3614 52.3598 82.6475 52.687 82.8288 53.0992C83.0129 53.5071 83.105 53.9562 83.105 54.442V58.9295H81.935V54.6092C81.935 54.0695 81.8032 53.6134 81.5426 53.2465C81.282 52.881 80.8599 52.6955 80.2819 52.6955C79.8598 52.6955 79.4972 52.8045 79.1955 53.0269C78.8937 53.2493 78.6629 53.5397 78.5085 53.9066C78.3541 54.272 78.2747 54.6687 78.2747 55.0922V58.9338H77.1047V54.5822C77.1047 54.0496 76.973 53.6006 76.7052 53.2394C76.4375 52.8768 76.0225 52.6955 75.453 52.6955C74.8454 52.6955 74.3666 52.9108 74.0082 53.3371C73.6498 53.7635 73.4728 54.2876 73.4728 54.9151V58.9338H72.3027V53.493L72.2985 53.4901Z" fill="#000"/><path d="M106.2 58.0215L106.819 57.2524C107.215 57.5654 107.622 57.7878 108.046 57.928C108.468 58.064 108.944 58.1348 109.476 58.1348C110.136 58.1348 110.673 57.9805 111.08 57.6745C111.488 57.3685 111.692 56.9195 111.692 56.3316C111.692 55.9208 111.597 55.5837 111.401 55.3273C111.209 55.0709 110.941 54.8627 110.601 54.7083C110.261 54.5539 109.812 54.4024 109.25 54.255C108.34 54.0171 107.66 53.6927 107.211 53.2847C106.762 52.8768 106.536 52.3045 106.536 51.5722C106.536 50.7563 106.841 50.1188 107.452 49.6585C108.064 49.1981 108.84 48.9715 109.784 48.9715C110.38 48.9715 110.92 49.0508 111.403 49.2052C111.886 49.3596 112.33 49.5905 112.745 49.8922L112.194 50.6925C111.809 50.4432 111.425 50.2619 111.043 50.1415C110.662 50.0211 110.243 49.9644 109.782 49.9644C109.167 49.9644 108.673 50.0962 108.295 50.3568C107.917 50.6174 107.732 50.9985 107.732 51.4928C107.732 51.9872 107.905 52.3612 108.249 52.6133C108.592 52.8654 109.155 53.0921 109.937 53.2961C110.918 53.5524 111.66 53.8995 112.166 54.3414C112.672 54.7834 112.924 55.4321 112.924 56.2962C112.924 56.9195 112.77 57.4464 112.464 57.877C112.158 58.3077 111.743 58.632 111.218 58.8473C110.694 59.0627 110.109 59.1717 109.456 59.1717C108.189 59.1717 107.102 58.7907 106.196 58.0286V58.0215H106.2Z" fill="#000"/><path d="M113.976 57.0144C113.976 56.105 114.305 55.4746 114.961 55.1205C115.618 54.7664 116.605 54.5922 117.927 54.5922C118.249 54.5922 118.489 54.5964 118.655 54.6077V54.2083C118.655 53.6842 118.512 53.2946 118.229 53.0383C117.945 52.7819 117.508 52.653 116.923 52.653C116.179 52.653 115.478 52.8484 114.818 53.2451L114.407 52.4603C115.196 51.973 116.06 51.7322 116.995 51.7322C117.93 51.7322 118.693 51.9631 119.15 52.4192C119.603 52.8796 119.832 53.5737 119.832 54.51V57.3742C119.832 57.8799 119.862 58.3969 119.927 58.9281H118.852C118.788 58.5244 118.757 58.2071 118.757 57.9776H118.716C118.46 58.3544 118.135 58.6377 117.746 58.8304C117.358 59.023 116.852 59.1207 116.24 59.1207C115.56 59.1207 115.013 58.9394 114.603 58.5768C114.192 58.2142 113.984 57.6929 113.984 57.0144H113.976ZM118.657 56.3387V55.4293L118.038 55.4137C117.351 55.4137 116.8 55.4591 116.393 55.554C115.985 55.6446 115.683 55.8033 115.484 56.0214C115.287 56.2396 115.189 56.5498 115.189 56.9421C115.189 57.3345 115.309 57.6561 115.547 57.87C115.785 58.0853 116.117 58.1943 116.54 58.1943C116.964 58.1943 117.363 58.0994 117.683 57.911C118.005 57.7226 118.25 57.4889 118.412 57.2014C118.577 56.9181 118.661 56.6277 118.661 56.3331L118.657 56.3373V56.3387Z" fill="#000"/><path d="M123.199 49.184H122.029V58.9309H123.199V49.184Z" fill="#000"/><path d="M131.377 55.8444H126.172C126.218 56.5611 126.433 57.1277 126.818 57.5498C127.204 57.972 127.755 58.183 128.471 58.183C128.894 58.183 129.272 58.1264 129.608 58.0102C129.943 57.8969 130.279 57.7226 130.619 57.4932L131.143 58.2524C130.746 58.5357 130.329 58.7539 129.882 58.8969C129.438 59.0442 128.943 59.1165 128.403 59.1165C127.328 59.1165 126.494 58.7765 125.891 58.098C125.29 57.4195 124.988 56.5172 124.988 55.3854C124.988 54.6602 125.117 54.0227 125.374 53.4717C125.63 52.9207 126.004 52.4901 126.494 52.1855C126.984 51.8796 127.573 51.7252 128.263 51.7252C129.282 51.7252 130.059 52.0566 130.595 52.7181C131.13 53.3782 131.398 54.2536 131.398 55.3486C131.398 55.5667 131.391 55.7339 131.371 55.8429L131.375 55.8472L131.377 55.8444ZM130.263 54.935C130.245 54.2366 130.066 53.6785 129.728 53.2564C129.388 52.8343 128.898 52.6218 128.256 52.6218C127.614 52.6218 127.102 52.8414 126.743 53.2748C126.385 53.7125 126.192 54.2635 126.165 54.935H130.268H130.263Z" fill="#000"/><path d="M137.418 52.4745L136.894 53.2026C136.354 52.8258 135.765 52.636 135.132 52.636C134.69 52.636 134.347 52.7195 134.102 52.8895C133.853 53.0595 133.728 53.3003 133.728 53.6148C133.728 53.8442 133.778 54.0341 133.88 54.1814C133.982 54.3287 134.152 54.4533 134.39 54.5553C134.628 54.6573 134.979 54.7636 135.435 54.8726C136.152 55.0469 136.68 55.3033 137.024 55.6347C137.367 55.9704 137.541 56.4081 137.541 56.9478C137.541 57.6348 137.285 58.1703 136.772 58.5513C136.259 58.9323 135.625 59.1207 134.874 59.1207C133.863 59.1207 133.021 58.8488 132.341 58.3091L132.877 57.581C133.19 57.7921 133.496 57.9465 133.798 58.0484C134.099 58.1504 134.442 58.1986 134.832 58.1986C135.299 58.1986 135.669 58.0966 135.941 57.8969C136.213 57.6971 136.349 57.4068 136.349 57.0286C136.349 56.7793 136.299 56.5795 136.197 56.428C136.095 56.2764 135.929 56.1489 135.696 56.0512C135.462 55.9492 135.111 55.8401 134.643 55.7183C133.919 55.5327 133.391 55.2877 133.062 54.9746C132.731 54.6616 132.568 54.231 132.568 53.6799C132.568 53.0836 132.798 52.6091 133.262 52.2535C133.727 51.8994 134.337 51.7252 135.099 51.7252C135.997 51.7252 136.775 51.9745 137.424 52.4688L137.42 52.4731L137.418 52.4745Z" fill="#000"/><path d="M143.283 49.1698L143.022 50.007C142.727 49.9432 142.445 49.9163 142.169 49.9234C141.305 49.9305 140.874 50.4064 140.874 51.3427V51.9192H142.637V52.8131H140.874V58.9267H139.704V52.8131H138.478V52.0694L139.704 51.9178V51.3144C139.704 50.5707 139.901 50.0013 140.297 49.6004C140.693 49.201 141.278 48.997 142.059 48.9885C142.508 48.9885 142.916 49.0494 143.285 49.1656H143.281L143.283 49.1698Z" fill="#000"/><path d="M150.456 55.4067C150.456 56.1319 150.317 56.7764 150.036 57.343C149.757 57.9096 149.354 58.3473 148.825 58.6561C148.297 58.9692 147.667 59.1236 146.931 59.1236C146.196 59.1236 145.577 58.9649 145.045 58.6476C144.512 58.3303 144.108 57.8926 143.834 57.3345C143.557 56.7764 143.423 56.1305 143.423 55.4067C143.423 54.2862 143.729 53.3952 144.343 52.7309C144.958 52.0665 145.819 51.7351 146.933 51.7351C147.677 51.7351 148.31 51.8895 148.838 52.1954C149.366 52.5042 149.766 52.9306 150.042 53.4816C150.317 54.0327 150.453 54.6743 150.453 55.4095L150.457 55.4053L150.456 55.4067ZM144.632 55.4067C144.632 56.241 144.821 56.9124 145.202 57.4224C145.583 57.9323 146.161 58.1844 146.93 58.1844C147.699 58.1844 148.293 57.928 148.677 57.4224C149.062 56.9124 149.254 56.241 149.254 55.4067C149.254 54.5723 149.062 53.9052 148.677 53.4108C148.291 52.9164 147.706 52.6671 146.93 52.6671C146.154 52.6671 145.572 52.9164 145.195 53.4108C144.818 53.9052 144.628 54.5738 144.628 55.4067H144.632Z" fill="#000"/><path d="M151.969 53.4901C151.969 52.9773 151.935 52.4518 151.871 51.9206H152.987C153.032 52.2337 153.066 52.6034 153.082 53.034H153.109C153.513 52.1629 154.248 51.7252 155.313 51.7252C155.385 51.7252 155.52 51.7407 155.712 51.7662L155.644 52.7705C155.554 52.7521 155.411 52.7436 155.218 52.7436C154.547 52.7436 154.034 52.9703 153.674 53.4193C153.316 53.8683 153.139 54.4533 153.139 55.1659V58.9238H151.969V53.4859V53.4901Z" fill="#000"/><path d="M159.606 51.7308C160.048 51.7308 160.466 51.7988 160.867 51.9305C161.268 52.0623 161.622 52.2507 161.935 52.4886L161.468 53.3003C160.935 52.9037 160.317 52.7082 159.611 52.7082C158.86 52.7082 158.29 52.9533 157.905 53.4448C157.52 53.9363 157.327 54.595 157.327 55.418C157.327 56.241 157.52 56.8784 157.905 57.3798C158.29 57.8813 158.856 58.1306 159.599 58.1306C160.234 58.1306 160.86 57.9337 161.486 57.5385L161.912 58.3643C161.214 58.87 160.418 59.1222 159.516 59.1222C158.727 59.1222 158.078 58.9451 157.576 58.5938C157.071 58.2397 156.708 57.7821 156.482 57.224C156.255 56.6659 156.146 56.0625 156.146 55.4208C156.146 54.3004 156.452 53.4051 157.067 52.738C157.681 52.0665 158.531 51.7337 159.613 51.7337L159.606 51.7294V51.7308Z" fill="#000"/><path d="M169.147 55.8444H163.942C163.988 56.5611 164.203 57.1277 164.588 57.5498C164.973 57.972 165.524 58.183 166.241 58.183C166.663 58.183 167.042 58.1264 167.377 58.0102C167.713 57.8969 168.049 57.7226 168.389 57.4932L168.913 58.2524C168.516 58.5357 168.098 58.7539 167.652 58.8969C167.207 59.0442 166.713 59.1165 166.173 59.1165C165.098 59.1165 164.264 58.7765 163.66 58.098C163.06 57.4195 162.758 56.5172 162.758 55.3854C162.758 54.6602 162.886 54.0227 163.143 53.4717C163.4 52.9207 163.774 52.4901 164.264 52.1855C164.754 51.881 165.343 51.7252 166.033 51.7252C167.051 51.7252 167.829 52.0566 168.365 52.7181C168.9 53.3782 169.169 54.2536 169.169 55.3486C169.169 55.5667 169.162 55.7339 169.142 55.8429L169.147 55.8472V55.8444ZM168.033 54.935C168.015 54.2366 167.836 53.6785 167.498 53.2564C167.158 52.8343 166.668 52.6218 166.026 52.6218C165.384 52.6218 164.871 52.8414 164.513 53.2748C164.155 53.7125 163.962 54.2635 163.935 54.935H168.037H168.033Z" fill="#000"/><path d="M93.9512 50.1769C94.2303 49.878 94.566 49.6443 94.9399 49.4857C95.3096 49.3199 95.7091 49.2364 96.1171 49.2364C96.6567 49.2364 97.1851 49.3879 97.6497 49.667C98.1143 49.946 98.4954 50.3455 98.7546 50.8257C99.2305 50.6146 99.7433 50.5041 100.26 50.5013C101.249 50.5013 102.2 50.8979 102.898 51.6076C103.596 52.3173 103.993 53.2762 103.993 54.2791C103.993 55.282 103.6 56.241 102.898 56.9507C102.2 57.6603 101.249 58.0569 100.26 58.0569C100.015 58.0569 99.7731 58.03 99.5365 57.9734C99.2036 58.5853 98.6498 59.0414 97.9925 59.2482C97.3324 59.4522 96.6185 59.3998 95.9924 59.1009C95.7544 59.6788 95.3436 60.169 94.8153 60.4976C94.294 60.8404 93.6835 61.0146 93.0602 60.999C92.4455 60.9919 91.8449 60.7922 91.3434 60.4253C90.842 60.0627 90.4609 59.5542 90.2485 58.9649C90.0516 59.006 89.8518 59.0287 89.6521 59.0258C89.1464 59.0188 88.6563 58.8743 88.2214 58.615C87.788 58.3544 87.4296 57.9847 87.1761 57.5428C86.9268 57.1008 86.795 56.5994 86.7908 56.0866C86.7908 55.5766 86.9183 55.0752 87.1676 54.6304C87.4211 54.1885 87.7823 53.823 88.22 53.5666C87.8999 52.8116 87.8617 51.9674 88.118 51.1855C88.3744 50.4121 88.8985 49.7548 89.5969 49.3398C90.2995 48.9205 91.1295 48.7817 91.9256 48.9431C92.7288 49.0834 93.4498 49.5211 93.9484 50.1727V50.1769H93.9512Z" fill="#0D9DDA"/><path d="M54.1205 33.6973L56.241 28.7849C58.5244 30.4832 61.5614 31.37 64.5545 31.37C66.7614 31.37 68.1623 30.513 68.1623 29.2197C68.1326 25.6119 54.9052 28.4392 54.8004 19.375C54.7707 14.7756 58.8573 11.2287 64.6451 11.2287C68.0858 11.2287 71.5279 12.0857 73.9771 14.0249L71.9926 19.028C69.7403 17.6015 66.9441 16.5788 64.2981 16.5788C62.4949 16.5788 61.2908 17.4358 61.2908 18.518C61.3206 22.0649 74.6528 20.1257 74.7887 28.782C74.7887 33.4877 70.8069 36.7938 65.08 36.7938C60.9027 36.7938 57.0541 35.8164 54.1219 33.6987" fill="#000"/><path d="M135.191 27.0227C134.139 28.8571 132.154 30.1178 129.871 30.1178C126.505 30.1178 123.769 27.3967 123.769 24.0155C123.769 20.6343 126.49 17.9132 129.871 17.9132C132.154 17.9132 134.123 19.1767 135.191 21.0068L141.022 17.7772C138.84 13.8832 134.649 11.2372 129.871 11.2372C122.822 11.2372 117.098 16.9613 117.098 24.0112C117.098 31.0612 122.822 36.7839 129.871 36.7839C134.683 36.7839 138.829 34.1534 141.022 30.2438L135.191 27.0142V27.0213V27.0227Z" fill="#000"/><path d="M85.023 0.630341H77.7322V36.3093H85.023V0.630341Z" fill="#000"/><path d="M143.893 0.630341V36.3277H151.184V25.626L159.84 36.3277H169.172L158.173 23.6117L168.36 11.7542H159.434L151.184 21.5961V0.630341H143.893Z" fill="#000"/><path d="M106.71 27.0822C105.657 28.8259 103.48 30.1206 101.011 30.1206C97.6455 30.1206 94.9088 27.3995 94.9088 24.0183C94.9088 20.6371 97.6299 17.916 101.011 17.916C103.46 17.916 105.642 19.2815 106.71 21.0564V27.0822ZM106.71 11.7513V14.6537C105.521 12.6381 102.548 11.2428 99.4487 11.2428C93.0447 11.2428 87.9963 16.8961 87.9963 23.9857C87.9963 31.0753 93.0447 36.8037 99.4487 36.8037C102.544 36.8037 105.52 35.407 106.71 33.3927V36.2951H114.001V11.7556H106.71V11.7513Z" fill="#000"/><path d="M9.03446 27.0524C9.03446 29.5469 7.01877 31.547 4.53988 31.547C2.061 31.547 0.0297241 29.5313 0.0297241 27.0524C0.0297241 24.5736 2.04541 22.5579 4.5243 22.5579H9.01888V27.0524H9.03446Z" fill="#DF1E5A"/><path d="M11.2725 27.0524C11.2725 24.558 13.2882 22.5579 15.7671 22.5579C18.246 22.5579 20.2617 24.5736 20.2617 27.0524V38.2938C20.2617 40.7883 18.246 42.7884 15.7671 42.7884C13.2882 42.7884 11.2725 40.7883 11.2725 38.2938V27.0524Z" fill="#DF1E5A"/><path d="M15.7813 8.98915C13.2869 8.98915 11.2867 6.97347 11.2867 4.49458C11.2867 2.01569 13.3024 0 15.7813 0C18.2602 0 20.2759 2.01569 20.2759 4.49458V8.98915H15.7813Z" fill="#36C4EF"/><path d="M15.7813 11.2711C18.2758 11.2711 20.2759 13.2868 20.2759 15.7657C20.2759 18.2446 18.2602 20.2603 15.7813 20.2603H4.49458C2.00011 20.2603 0 18.2446 0 15.7657C0 13.2868 2.01569 11.2711 4.49458 11.2711H15.7813Z" fill="#36C4EF"/><path d="M33.8007 15.7657C33.8007 13.2713 35.8164 11.2711 38.2953 11.2711C40.7742 11.2711 42.7899 13.2868 42.7899 15.7657C42.7899 18.2446 40.7742 20.2603 38.2953 20.2603H33.8007V15.7657Z" fill="#2EB57D"/><path d="M31.5626 15.7657C31.5626 18.2602 29.547 20.2603 27.0681 20.2603C24.5892 20.2603 22.5735 18.2446 22.5735 15.7657V4.49458C22.5735 2.00011 24.5892 0 27.0681 0C29.547 0 31.5626 2.00011 31.5626 4.49458V15.7657Z" fill="#2EB57D"/><path d="M27.0538 33.7993C29.5483 33.7993 31.5484 35.8149 31.5484 38.2938C31.5484 40.7727 29.5327 42.7884 27.0538 42.7884C24.575 42.7884 22.5593 40.7727 22.5593 38.2938V33.7993H27.0538Z" fill="#EBB12E"/><path d="M27.0538 31.547C24.5594 31.547 22.5593 29.5313 22.5593 27.0524C22.5593 24.5736 24.575 22.5579 27.0538 22.5579H38.3406C40.835 22.5579 42.8351 24.5736 42.8351 27.0524C42.8351 29.5313 40.8209 31.547 38.3406 31.547H27.0538Z" fill="#EBB12E"/></svg>