<svg width="683" height="500" viewBox="0 0 683 500" fill="none" xmlns="http://www.w3.org/2000/svg"><path d="M60.68 21.85C53.5942 21.85 47.85 27.5942 47.85 34.68V497C47.85 498.187 48.8126 499.15 50 499.15H672C677.606 499.15 682.15 494.606 682.15 489V24C682.15 22.8126 681.187 21.85 680 21.85H60.68Z" stroke="#000" stroke-opacity=".3" stroke-width=".3"/><g clip-path="url(#clip0_353_3804)"><mask id="path-3-inside-1_353_3804" fill="#fff"><path d="M48 34.6825C48 27.6781 53.6781 22 60.6825 22H680C681.105 22 682 22.8954 682 24V489C682 494.523 677.523 499 672 499H50C48.8954 499 48 498.105 48 497V34.6825Z"/></mask><path d="M48 34.6825C48 27.6781 53.6781 22 60.6825 22H680C681.105 22 682 22.8954 682 24V489C682 494.523 677.523 499 672 499H50C48.8954 499 48 498.105 48 497V34.6825Z" fill="#F9FAFA"/><g filter="url(#filter0_dd_353_3804)"><rect x="48" y="22" width="667" height="48" fill="#23272A"/></g><path d="M89 60V52H92V63H68V52H71V60H89Z" fill="#fff"/><path d="M73.4021 52.101L86.9631 54.061L87.127 51.6804L73.8713 49.134L73.4021 52.101ZM75.2 45.3L87.2 50.9L88.3 48.5L76.3 42.9L75.2 45.3ZM78.6 39.4L88.8 47.9L90.5 45.9L80.3 37.4L78.6 39.4ZM85.1 33.2L83 34.8L90.9 45.4L93 43.8L85.1 33.2ZM73 58H87V55H73V58Z" fill="#fff"/><path d="M127.141 44.0037H119.367C119.134 44.0037 118.979 44.1594 118.979 44.393V56.5798C118.979 56.8134 119.134 56.9691 119.367 56.9691H121.233C121.466 56.9691 121.622 56.8134 121.622 56.5798V51.8297H126.286C126.519 51.8297 126.675 51.6739 126.675 51.4403V49.7661C126.675 49.5325 126.519 49.3768 126.286 49.3768H121.622V46.4566H127.18C127.413 46.4566 127.569 46.3009 127.569 46.0673V44.393C127.53 44.1984 127.336 44.0037 127.141 44.0037Z" fill="#fff"/><path d="M137.434 46.7294C137.239 46.2232 136.967 45.756 136.54 45.3277C135.607 44.3932 134.402 43.926 133.041 43.926C131.681 43.926 130.515 44.3932 129.582 45.3277C129.271 45.6392 128.999 45.9896 128.843 46.34C128.688 46.6904 128.532 47.0798 128.454 47.4691C128.377 47.8585 128.338 48.2868 128.299 48.7151C128.26 49.1434 128.26 49.7663 128.26 50.5061C128.26 51.4795 128.299 52.2192 128.338 52.7643C128.377 53.3094 128.493 53.8156 128.688 54.3218C128.882 54.8279 129.193 55.2562 129.582 55.7234C130.515 56.6579 131.681 57.1251 133.041 57.1251C134.402 57.1251 135.568 56.6579 136.54 55.6845C136.928 55.2562 137.239 54.789 137.434 54.2828C137.628 53.8156 137.706 53.2705 137.745 52.7254C137.783 52.2192 137.783 51.4405 137.783 50.4672C137.783 49.4938 137.783 48.754 137.745 48.2089C137.745 47.7028 137.628 47.1966 137.434 46.7294ZM131.02 48.0142C131.098 47.5859 131.253 47.2355 131.486 46.963C131.642 46.7683 131.875 46.6126 132.147 46.4958C132.419 46.3789 132.73 46.34 133.002 46.34C133.313 46.34 133.585 46.4179 133.857 46.4958C134.13 46.6126 134.363 46.7683 134.518 46.963C134.752 47.2355 134.907 47.547 134.985 47.9753C135.062 48.4425 135.101 49.2991 135.101 50.4672C135.101 51.2459 135.101 51.8688 135.062 52.3361C135.024 52.7643 134.985 53.1148 134.868 53.3484C134.79 53.582 134.674 53.7767 134.479 53.9713C134.091 54.3996 133.585 54.5943 132.963 54.5943C132.653 54.5943 132.38 54.5554 132.108 54.4386C131.836 54.3218 131.603 54.166 131.448 54.0103C131.292 53.8545 131.175 53.6988 131.137 53.543C131.098 53.4652 131.02 53.2705 130.981 52.959C130.942 52.6865 130.903 52.375 130.864 51.9856C130.864 51.5963 130.826 51.0901 130.826 50.4672C130.903 49.338 130.942 48.4815 131.02 48.0142Z" fill="#fff"/><path d="M146.072 51.4405C146.655 51.2069 147.16 50.8176 147.588 50.3114C148.093 49.6885 148.326 48.9098 148.326 47.9753C148.326 47.2355 148.171 46.5347 147.821 45.9507C147.471 45.3666 146.966 44.8605 146.344 44.549C145.722 44.1986 144.984 44.0428 144.167 44.0428H139.425C139.192 44.0428 139.036 44.1986 139.036 44.4322V56.6189C139.036 56.8525 139.192 57.0083 139.425 57.0083H141.291C141.524 57.0083 141.68 56.8525 141.68 56.6189V51.8688H143.351L145.8 56.7747C145.878 56.8915 145.994 57.0083 146.15 57.0083H148.288C148.404 57.0083 148.56 56.9304 148.637 56.8136C148.715 56.6968 148.715 56.5411 148.637 56.4242L146.072 51.4405ZM141.68 46.4568H144.012C144.556 46.4568 144.945 46.5736 145.256 46.8851C145.567 47.1577 145.683 47.5081 145.683 48.0142C145.683 48.4815 145.528 48.8319 145.256 49.1044C144.945 49.377 144.556 49.5327 144.012 49.5327H141.68V46.4568Z" fill="#fff"/><path d="M163.878 44.0039H155.326C155.093 44.0039 154.937 44.1597 154.937 44.3933V46.0675C154.937 46.3011 155.093 46.4568 155.326 46.4568H158.28V56.58C158.28 56.8136 158.436 56.9694 158.669 56.9694H160.496C160.729 56.9694 160.885 56.8136 160.885 56.58V46.4568H163.839C164.072 46.4568 164.228 46.3011 164.228 46.0675V44.3933C164.267 44.1986 164.072 44.0039 163.878 44.0039Z" fill="#fff"/><path d="M174.14 44.0039H166.366C166.132 44.0039 165.977 44.1597 165.977 44.3933V56.58C165.977 56.8136 166.132 56.9694 166.366 56.9694H174.14C174.373 56.9694 174.528 56.8136 174.528 56.58V54.9058C174.528 54.6722 174.373 54.5164 174.14 54.5164H168.581V51.6352H173.246C173.479 51.6352 173.634 51.4795 173.634 51.2459V49.6106C173.634 49.377 173.479 49.2212 173.246 49.2212H168.581V46.4568H174.14C174.373 46.4568 174.528 46.3011 174.528 46.0675V44.3933C174.528 44.1986 174.334 44.0039 174.14 44.0039Z" fill="#fff"/><path d="M182.271 44.2765C182.232 44.1207 182.076 44.0039 181.921 44.0039H180.444C180.288 44.0039 180.133 44.1207 180.094 44.2765L175.624 56.4632C175.585 56.58 175.585 56.6968 175.663 56.8136C175.74 56.9304 175.857 56.9694 175.974 56.9694H177.956C178.111 56.9694 178.267 56.8526 178.306 56.6968L179.044 54.5164H183.281L184.02 56.6968C184.059 56.8526 184.214 56.9694 184.37 56.9694H186.352C186.469 56.9694 186.585 56.8915 186.663 56.8136C186.741 56.6968 186.741 56.58 186.702 56.4632L182.271 44.2765ZM182.504 52.1803H179.861L181.221 48.3647L182.504 52.1803Z" fill="#fff"/><path d="M199.225 44.0039H197.359C197.204 44.0039 197.087 44.0818 197.009 44.2375L193.9 51.0512L190.712 44.2375C190.635 44.0818 190.518 44.0039 190.362 44.0039H188.497C188.263 44.0039 188.108 44.1597 188.108 44.3933V56.58C188.108 56.8136 188.263 56.9694 188.497 56.9694H190.362C190.596 56.9694 190.751 56.8136 190.751 56.58V50.1557L192.889 54.5554C192.967 54.6722 193.083 54.789 193.239 54.789H194.599C194.755 54.789 194.871 54.7111 194.949 54.5554L197.009 50.1946V56.6189C197.009 56.8526 197.165 57.0083 197.398 57.0083H199.264C199.497 57.0083 199.653 56.8526 199.653 56.6189V44.4322C199.614 44.1986 199.458 44.0039 199.225 44.0039Z" fill="#fff"/><path d="M209.681 50.3504C209.409 50.0778 209.059 49.8831 208.67 49.7274C208.282 49.5717 207.815 49.4548 207.232 49.377L205.833 49.1823C205.6 49.1434 205.366 49.1044 205.133 48.9876C204.939 48.9098 204.745 48.7929 204.667 48.7151C204.434 48.5204 204.356 48.2479 204.356 47.8585C204.356 47.547 204.434 47.3134 204.55 47.0798C204.706 46.8462 204.9 46.6904 205.133 46.5736C205.405 46.4568 205.755 46.379 206.144 46.379C206.494 46.379 206.805 46.4179 207.077 46.4568C207.349 46.4958 207.621 46.6126 207.854 46.7294C208.087 46.8462 208.321 47.0019 208.554 47.2355C208.709 47.3913 208.943 47.3913 209.098 47.2355L210.303 46.0675C210.381 45.9896 210.42 45.8728 210.42 45.7949C210.42 45.6781 210.381 45.6003 210.303 45.5224C209.759 45.0162 209.137 44.6269 208.515 44.3933C207.893 44.1596 207.116 44.0428 206.261 44.0428C205.366 44.0428 204.589 44.1986 203.928 44.5101C203.267 44.8215 202.723 45.3277 202.373 45.9117C202.024 46.4958 201.829 47.1966 201.829 47.9753C201.829 49.0655 202.179 49.961 202.84 50.584C203.462 51.168 204.278 51.5184 205.366 51.6741L206.805 51.8688C207.116 51.9078 207.388 51.9856 207.543 52.0246C207.699 52.0635 207.815 52.1414 207.932 52.2971C208.165 52.4918 208.282 52.8422 208.282 53.2705C208.282 53.7377 208.126 54.0881 207.776 54.3217C207.388 54.5943 206.844 54.75 206.144 54.75C205.755 54.75 205.366 54.7111 205.056 54.6332C204.745 54.5554 204.434 54.4386 204.123 54.2828C203.851 54.1271 203.578 53.9324 203.306 53.6598C203.229 53.582 203.151 53.543 203.034 53.543C202.918 53.543 202.84 53.582 202.762 53.6598L201.518 54.8668C201.441 54.9447 201.402 55.0226 201.402 55.1394C201.402 55.2562 201.441 55.3341 201.518 55.4119C202.14 56.0349 202.801 56.4632 203.54 56.7357C204.278 57.0083 205.133 57.1251 206.105 57.1251C206.766 57.1251 207.427 57.0472 207.971 56.8525C208.554 56.6968 209.059 56.4243 209.487 56.0738C209.914 55.7234 210.264 55.2951 210.497 54.789C210.731 54.2828 210.847 53.7377 210.847 53.1537C210.808 51.9078 210.42 50.9733 209.681 50.3504Z" fill="#fff"/><rect x="106" y="44" width="1" height="13" fill="#fff"/><rect x="231" y="39" width="18" height="18" rx="3" fill="#F48024"/><path d="M241 49.8406L245.5 48L250 49.8406V53.01C250 55.5275 247.304 58 245.5 58C243.696 58 241 55.5275 241 53.01V49.8406Z" fill="#fff"/><path fill-rule="evenodd" clip-rule="evenodd" d="M242 50.5L245.5 49L249 50.5V53.01C249 55.345 246.345 57 245.5 57C244.655 57 242 55.345 242 53.01V50.5ZM244.982 53.5247L244.2 55L246.8 54.9962L246.018 53.5247C245.988 53.3739 246.054 53.223 246.169 53.1377C246.506 52.9016 246.898 52.436 246.898 52.0031C246.898 51.2882 246.404 50.7699 245.488 50.7699C244.572 50.7699 244.104 51.2882 244.104 52.0031C244.104 52.436 244.494 52.9016 244.831 53.1377C244.95 53.2206 245.01 53.3743 244.982 53.5247Z" fill="#6A7E7C"/><text fill="#fff" xml:space="preserve" font-family="Arial" font-size="13" letter-spacing="0em" white-space="pre"><tspan x="253" y="52.507">Your Team</tspan></text><path d="M409 46H417L413 50L409 46Z" fill="#fff"/><path d="M450 32.5H689C691.485 32.5 693.5 34.5147 693.5 37V59C693.5 61.4853 691.485 63.5 689 63.5H450C447.515 63.5 445.5 61.4853 445.5 59V37C445.5 34.5147 447.515 32.5 450 32.5Z" fill="#3C4146" stroke="#6A737C"/><path fill-rule="evenodd" clip-rule="evenodd" d="M472.881 55.5L467.745 50.321L467.389 50.3206C468.323 49.1307 468.881 47.6304 468.881 46C468.881 42.134 465.747 39 461.881 39C458.015 39 454.881 42.134 454.881 46C454.881 49.866 458.015 53 461.881 53C463.512 53 465.013 52.4421 466.203 51.5068V51.864L471.381 57L472.881 55.5ZM466.881 46C466.881 48.7614 464.642 51 461.881 51C459.119 51 456.881 48.7614 456.881 46C456.881 43.2386 459.119 41 461.881 41C464.642 41 466.881 43.2386 466.881 46Z" fill="#D6D9DC"/><text fill="#D6D9DC" xml:space="preserve" font-family="Arial" font-size="13" letter-spacing="0em" white-space="pre"><tspan x="478" y="52.007">Search…</tspan></text><rect x="59" y="158" width="164" height="29" rx="14.5" fill="#E7700D"/><path fill-rule="evenodd" clip-rule="evenodd" d="M87 174V179C87 180.105 86.098 181 84.9915 181H77.0085C75.8992 181 75 180.113 75 179V174H72L81 165L90 174H87ZM79 175V181H83V175H79Z" fill="#fff"/><text fill="#fff" xml:space="preserve" font-family="Arial" font-size="13" letter-spacing="0em" white-space="pre"><tspan x="100" y="177.507">Home</tspan></text><text fill="#23272A" xml:space="preserve" font-family="Arial" font-size="11" font-weight="bold" letter-spacing="0em" white-space="pre"><tspan x="71" y="221.813">CONTENT</tspan></text><path d="M76 253L73 256V242C73 240.9 73.9 240 75 240H87C88.0893 240 89 240.911 89 242V251C89 252.089 88.0893 253 87 253H76ZM83.75 249.03C84.4681 248.2 84.73 247.175 84.73 246.09C84.73 244.439 84.0227 242.875 82.4238 242.259C81.4991 241.903 80.3319 241.905 79.4068 242.259C77.8605 242.85 76.9898 244.461 77.09 246.09C77.09 247.38 77.44 248.38 78.12 249.09C78.8684 249.824 79.9232 250.22 80.97 250.16C81.59 250.16 82.17 250.05 82.68 249.82C83.33 250.26 83.68 250.5 83.74 250.52C83.97 250.65 84.2 250.75 84.44 250.82L85.03 249.69C84.5748 249.53 84.144 249.308 83.75 249.03ZM82.48 248.13C82.0254 247.786 81.5191 247.516 80.98 247.33L80.53 248.23C80.86 248.35 81.19 248.52 81.51 248.73C81.31 248.8 81.09 248.84 80.86 248.84C80.25 248.84 79.74 248.61 79.34 248.16C78.4764 247.167 78.4764 245.043 79.34 244.05C80.141 243.149 81.6891 243.148 82.49 244.05C83.3922 245.065 83.3547 247.08 82.48 248.13Z" fill="#2F3337"/><text fill="#2F3337" xml:space="preserve" font-family="Arial" font-size="13" letter-spacing="0em" white-space="pre"><tspan x="100" y="251.507">Questions</tspan></text><path fill-rule="evenodd" clip-rule="evenodd" d="M77 271C75.8954 271 75 271.895 75 273V283C75 284.105 75.8954 285 77 285H84C85.1046 285 86 284.105 86 283V273C86 271.895 85.1046 271 84 271H77ZM79 274C79 274.552 78.5523 275 78 275C77.4477 275 77 274.552 77 274C77 273.448 77.4477 273 78 273C78.5523 273 79 273.448 79 274ZM77 278.5C77 278.224 77.2239 278 77.5 278H83.5C83.7761 278 84 278.224 84 278.5C84 278.776 83.7761 279 83.5 279H77.5C77.2239 279 77 278.776 77 278.5ZM77.5 280H83.5C83.7761 280 84 280.224 84 280.5C84 280.776 83.7761 281 83.5 281H77.5C77.2239 281 77 280.776 77 280.5C77 280.224 77.2239 280 77.5 280ZM77 282.5C77 282.224 77.2239 282 77.5 282H83.5C83.7761 282 84 282.224 84 282.5C84 282.776 83.7761 283 83.5 283H77.5C77.2239 283 77 282.776 77 282.5Z" fill="#2F3337"/><path opacity=".4" d="M77.9043 270H84.2495C85.7683 270 86.9995 271.231 86.9995 272.75V282.095C87.6158 281.504 87.9995 280.672 87.9995 279.75V272.25C87.9995 270.455 86.5444 269 84.7495 269H80.2495C79.3278 269 78.4958 269.384 77.9043 270Z" fill="#2F3337"/><text fill="#2F3337" xml:space="preserve" font-family="Arial" font-size="13" letter-spacing="0em" white-space="pre"><tspan x="100" y="281.507">Articles</tspan></text><path fill-rule="evenodd" clip-rule="evenodd" d="M76.8238 300.778H85.0371C85.7152 300.761 86.3257 301.186 86.546 301.828L88.7782 308.392V311.667C88.7782 312.526 88.0818 313.222 87.2227 313.222H74.7782C73.9191 313.222 73.2227 312.526 73.2227 311.667V308.392L75.3849 301.828C75.5804 301.199 76.165 300.772 76.8238 300.778ZM83.2638 310.111L84.8193 308.556H87.1138L85.216 302.862C85.109 302.545 84.8115 302.332 84.4771 302.333H77.3838C77.0494 302.332 76.7519 302.545 76.6449 302.862L74.7471 308.556H77.0415L78.5971 310.111H83.2638Z" fill="#2F3337"/><text fill="#2F3337" xml:space="preserve" font-family="Arial" font-size="13" letter-spacing="0em" white-space="pre"><tspan x="100" y="311.507">For You</tspan></text><path fill-rule="evenodd" clip-rule="evenodd" d="M77 331C75.8954 331 75 331.895 75 333V340C75 341.105 75.8954 342 77 342H87C88.1046 342 89 341.105 89 340V333C89 331.895 88.1046 331 87 331H77ZM77 333.5C77 333.224 77.2239 333 77.5 333H86.5C86.7761 333 87 333.224 87 333.5C87 333.776 86.7761 334 86.5 334H77.5C77.2239 334 77 333.776 77 333.5ZM77.5 336H86.5C86.7761 336 87 336.224 87 336.5C87 336.776 86.7761 337 86.5 337H77.5C77.2239 337 77 336.776 77 336.5C77 336.224 77.2239 336 77.5 336ZM77 339.5C77 339.224 77.2239 339 77.5 339H83.5C83.7761 339 84 339.224 84 339.5C84 339.776 83.7761 340 83.5 340H77.5C77.2239 340 77 339.776 77 339.5Z" fill="#2F3337"/><path opacity=".4" d="M87.0869 342.993H76.7417C75.2229 342.993 73.9917 341.761 73.9917 340.243V332.897C73.3754 333.489 72.9917 334.321 72.9917 335.243V340.743C72.9917 342.538 74.4468 343.993 76.2417 343.993H84.7417C85.6634 343.993 86.4954 343.609 87.0869 342.993Z" fill="#2F3337"/><text fill="#2F3337" xml:space="preserve" font-family="Arial" font-size="13" letter-spacing="0em" white-space="pre"><tspan x="100" y="341.507">Collections</tspan></text><path fill-rule="evenodd" clip-rule="evenodd" d="M81 368.596L85 371.263V361H77V371.263L81 368.596ZM75 375V361C75 359.895 75.8954 359 77 359H85C86.1046 359 87 359.895 87 361V375L81 371L75 375Z" fill="#000"/><text fill="#2F3337" xml:space="preserve" font-family="Arial" font-size="13" letter-spacing="0em" white-space="pre"><tspan x="100" y="371.507">Bookmarks</tspan></text><path opacity=".4" d="M81.2423 389C80.4467 389 79.6836 389.316 79.121 389.879L73.4139 395.586C72.7893 396.21 72.6642 397.145 73.0385 397.894C73.1849 397.524 73.4077 397.178 73.7068 396.879L79.7068 390.879C80.2694 390.316 81.0325 390 81.8281 390H85.9997C86.2728 390 86.5373 390.036 86.7887 390.105C86.4602 389.45 85.7825 389 84.9997 389H81.2423Z" fill="#000"/><path fill-rule="evenodd" clip-rule="evenodd" d="M81.8281 391C81.2977 391 80.789 391.211 80.4139 391.586L74.4139 397.586C73.6329 398.367 73.6329 399.633 74.4139 400.414L78.5855 404.586C79.3665 405.367 80.6329 405.367 81.4139 404.586L87.4139 398.586C87.789 398.211 87.9997 397.702 87.9997 397.172V393C87.9997 391.895 87.1043 391 85.9997 391L81.8281 391ZM83.9997 397C82.8951 397 81.9997 396.105 81.9997 395C81.9997 393.895 82.8951 393 83.9997 393C85.1043 393 85.9997 393.895 85.9997 395C85.9997 396.105 85.1043 397 83.9997 397Z" fill="#2F3337"/><text fill="#2F3337" xml:space="preserve" font-family="Arial" font-size="13" letter-spacing="0em" white-space="pre"><tspan x="100" y="401.507">Tags</tspan></text><text fill="#23272A" xml:space="preserve" font-family="Arial" font-size="11" font-weight="bold" letter-spacing="0em" white-space="pre"><tspan x="71" y="445.813">COMMUNITY</tspan></text><path fill-rule="evenodd" clip-rule="evenodd" d="M75 463C75 461.895 75.8954 461 77 461H88C89.1046 461 90 461.895 90 463V474C90 475.105 89.1046 476 88 476H77C75.8954 476 75 475.105 75 474V463ZM82.0587 465.91L80.6487 464.641L76.7969 468.5L80.7656 472.453L82.0587 471.09L79.4688 468.5L82.0587 465.91ZM84.2344 464.672L82.9569 465.91L85.5469 468.5L82.9569 471.09L84.2344 472.359L88.0938 468.5L84.2344 464.672Z" fill="#2F3337"/><path opacity=".4" d="M74 464C72.8954 464 72 464.895 72 466V476C72 477.657 73.3431 479 75 479H85C86.1046 479 87 478.105 87 477H76C74.8954 477 74 476.105 74 475V464Z" fill="#2F3337"/><text fill="#2F3337" xml:space="preserve" font-family="Arial" font-size="13" letter-spacing="0em" white-space="pre"><tspan x="100" y="474.507">Communities</tspan></text><path d="M89 503.999C89 504.438 88.55 504.999 88 504.999H80.995C80.456 504.999 80.001 504.552 80 504H74C73.46 504 73 503.439 73 503C73 500.366 76 499 76 499C76 499 76.229 498.591 76 498C75.159 497.379 74.942 497.41 75 495C75.058 492.581 76.367 492 77.5 492C78.633 492 79.942 492.58 80 495C80.058 497.41 79.841 497.379 79 498C78.771 498.59 79 499 79 499C79 499 80.549 499.711 81.42 501.088C82.196 500.369 83 499.999 83 499.999C83 499.999 83.229 499.59 83 498.999C82.159 498.379 81.942 498.409 82 495.999C82.058 493.58 83.367 492.999 84.5 492.999C85.633 492.999 86.937 493.58 86.995 495.999C87.054 498.409 86.837 498.379 85.995 498.999C85.766 499.589 85.995 499.999 85.995 499.999C85.995 499.999 89 501.365 89 503.999Z" fill="#2F3337"/><text fill="#2F3337" xml:space="preserve" font-family="Arial" font-size="13" letter-spacing="0em" white-space="pre"><tspan x="100" y="503.507">Users</tspan></text><text fill="#636C74" xml:space="preserve" font-family="Arial" font-size="17" letter-spacing="0em" white-space="pre"><tspan x="111" y="116.394">Your Team</tspan></text><text fill="#636C74" xml:space="preserve" font-family="Arial" font-size="11" letter-spacing="0em" white-space="pre"><tspan x="113" y="127.813">Business Team</tspan></text><g filter="url(#filter1_d_353_3804)"><path d="M63 104C63 101.239 65.2386 99 68 99H90C92.7614 99 95 101.239 95 104V126C95 128.761 92.7614 131 90 131H68C65.2386 131 63 128.761 63 126V104Z" fill="#F48024"/><path d="M68 98C64.6863 98 62 100.686 62 104V126C62 129.314 64.6863 132 68 132H90C93.3137 132 96 129.314 96 126V104C96 100.686 93.3137 98 90 98H68Z" stroke="#fff" stroke-width="2"/></g><path d="M89.875 126.301L95.5 124L101.125 126.301V130.263C101.125 133.409 97.7552 136.5 95.5 136.5C93.2448 136.5 89.875 133.409 89.875 130.263V126.301Z" fill="#fff"/><path fill-rule="evenodd" clip-rule="evenodd" d="M91.125 127.125L95.5 125.25L99.875 127.125V130.263C99.875 133.181 96.5563 135.25 95.5 135.25C94.4437 135.25 91.125 133.181 91.125 130.263V127.125ZM94.8522 130.906L93.875 132.75L97.125 132.745L96.1478 130.906C96.1101 130.717 96.193 130.529 96.3361 130.422C96.7579 130.127 97.248 129.545 97.248 129.004C97.248 128.11 96.6295 127.462 95.4849 127.462C94.3403 127.462 93.7555 128.11 93.7555 129.004C93.7555 129.545 94.2421 130.127 94.6639 130.422C94.8122 130.526 94.887 130.718 94.8522 130.906Z" fill="#636C74"/><text fill="#0C0D0E" xml:space="preserve" font-family="Arial" font-size="27" font-weight="bold" letter-spacing="0em" white-space="pre"><tspan x="250" y="124.36">Welcome back.</tspan></text><rect x="250.5" y="156.5" width="621" height="249" rx="6.5" fill="#fff"/><rect x="250.5" y="156.5" width="621" height="249" rx="6.5" stroke="#E3E6E8"/><mask id="path-52-inside-2_353_3804" fill="#fff"><path d="M250 156H872V226H250V156Z"/></mask><path d="M872 225H250V227H872V225Z" fill="#D6D9DC" mask="url(#path-52-inside-2_353_3804)"/><path d="M270 187L267 190V176C267 174.9 267.9 174 269 174H281C282.089 174 283 174.911 283 176V185C283 186.089 282.089 187 281 187H270ZM277.75 183.03C278.468 182.2 278.73 181.175 278.73 180.09C278.73 178.439 278.023 176.875 276.424 176.259C275.499 175.903 274.332 175.905 273.407 176.259C271.861 176.85 270.99 178.461 271.09 180.09C271.09 181.38 271.44 182.38 272.12 183.09C272.868 183.824 273.923 184.22 274.97 184.16C275.59 184.16 276.17 184.05 276.68 183.82C277.33 184.26 277.68 184.5 277.74 184.52C277.97 184.65 278.2 184.75 278.44 184.82L279.03 183.69C278.575 183.53 278.144 183.308 277.75 183.03ZM276.48 182.13C276.025 181.786 275.519 181.516 274.98 181.33L274.53 182.23C274.86 182.35 275.19 182.52 275.51 182.73C275.31 182.8 275.09 182.84 274.86 182.84C274.25 182.84 273.74 182.61 273.34 182.16C272.476 181.167 272.476 179.043 273.34 178.05C274.141 177.149 275.689 177.148 276.49 178.05C277.392 179.065 277.355 181.08 276.48 182.13Z" fill="#636C74"/><text fill="#0C0D0E" xml:space="preserve" font-family="Arial" font-size="15" font-weight="bold" letter-spacing="0em" white-space="pre"><tspan x="292" y="186.7">Reminder to accept an answer for</tspan></text><text fill="#1B75D0" xml:space="preserve" font-family="Arial" font-size="15" letter-spacing="0em" white-space="pre"><tspan x="537.288" y="186.7">New Technologies for Tag Location </tspan><tspan x="292" y="205.7">Census Tool</tspan></text><mask id="path-57-inside-3_353_3804" fill="#fff"><path d="M250 227H872V286H250V227Z"/></mask><path d="M872 285H250V287H872V285Z" fill="#E3E6E8" mask="url(#path-57-inside-3_353_3804)"/><path d="M266 251.5C266 250.395 266.895 249.5 268 249.5H272C273.105 249.5 274 250.395 274 251.5V260.5L272.25 263.5H270L271.75 260.5H268C266.895 260.5 266 259.605 266 258.5V251.5Z" fill="#636C74"/><path d="M275 251.5C275 250.395 275.895 249.5 277 249.5H281C282.105 249.5 283 250.395 283 251.5V260.5L281.25 263.5H279L280.75 260.5H277C275.895 260.5 275 259.605 275 258.5V251.5Z" fill="#636C74"/><text fill="#0C0D0E" xml:space="preserve" font-family="Arial" font-size="15" font-weight="bold" letter-spacing="0em" white-space="pre"><tspan x="292" y="261.7">New comment on</tspan></text><text fill="#1B75D0" xml:space="preserve" font-family="Arial" font-size="15" letter-spacing="0em" white-space="pre"><tspan x="421" y="261.7">Does Python have a ternary conditional operator?</tspan></text><mask id="path-62-inside-4_353_3804" fill="#fff"><path d="M250 287H872V357H250V287Z"/></mask><path d="M872 356H250V358H872V356Z" fill="#E3E6E8" mask="url(#path-62-inside-4_353_3804)"/><path d="M270 318L267 321V307C267 305.9 267.9 305 269 305H281C282.089 305 283 305.911 283 307V316C283 317.089 282.089 318 281 318H270ZM277.75 314.03C278.468 313.2 278.73 312.175 278.73 311.09C278.73 309.439 278.023 307.875 276.424 307.259C275.499 306.903 274.332 306.905 273.407 307.259C271.861 307.85 270.99 309.461 271.09 311.09C271.09 312.38 271.44 313.38 272.12 314.09C272.868 314.824 273.923 315.22 274.97 315.16C275.59 315.16 276.17 315.05 276.68 314.82C277.33 315.26 277.68 315.5 277.74 315.52C277.97 315.65 278.2 315.75 278.44 315.82L279.03 314.69C278.575 314.53 278.144 314.308 277.75 314.03ZM276.48 313.13C276.025 312.786 275.519 312.516 274.98 312.33L274.53 313.23C274.86 313.35 275.19 313.52 275.51 313.73C275.31 313.8 275.09 313.84 274.86 313.84C274.25 313.84 273.74 313.61 273.34 313.16C272.476 312.167 272.476 310.043 273.34 309.05C274.141 308.149 275.689 308.148 276.49 309.05C277.392 310.065 277.355 312.08 276.48 313.13Z" fill="#636C74"/><text fill="#0C0D0E" xml:space="preserve" font-family="Arial" font-size="15" font-weight="bold" letter-spacing="0em" white-space="pre"><tspan x="292" y="317.7">Mark Chavez thinks you may be able to answer</tspan></text><text fill="#1B75D0" xml:space="preserve" font-family="Arial" font-size="15" font-weight="bold" letter-spacing="0em" white-space="pre"><tspan x="570.643" y="336.7"></tspan></text><text fill="#1B75D0" xml:space="preserve" font-family="Arial" font-size="15" letter-spacing="0em" white-space="pre"><tspan x="631.58" y="317.7">How can I remove a </tspan><tspan x="292" y="336.7">specific item from an array in JavaScript?</tspan></text><text fill="#1B75D0" xml:space="preserve" font-family="Arial" font-size="15" letter-spacing="0em" white-space="pre"><tspan x="523" y="385.7">Show more</tspan></text><rect x="250.5" y="422.5" width="621" height="78" rx="6.5" fill="#fff"/><rect x="250.5" y="422.5" width="621" height="78" rx="6.5" stroke="#E3E6E8"/><text fill="#0C0D0E" xml:space="preserve" font-family="Arial" font-size="18" font-weight="bold" letter-spacing="0em" white-space="pre"><tspan x="269" y="463.74">Trending this month</tspan></text><text fill="#636C74" xml:space="preserve" font-family="Arial" font-size="13" letter-spacing="0em" white-space="pre"><tspan x="270" y="481.507">Recommended based on votes and your</tspan></text><text fill="#1B75D0" xml:space="preserve" font-family="Arial" font-size="13" letter-spacing="0em" white-space="pre"><tspan x="507.936" y="481.507">tag preferences</tspan></text><text fill="#fff" xml:space="preserve" font-family="Arial" font-size="15" font-weight="bold" letter-spacing="0em" white-space="pre"><tspan x="73.777" y="120.955">Y</tspan></text><text fill="#fff" xml:space="preserve" font-family="Arial" font-size="10" font-weight="bold" letter-spacing="0em" white-space="pre"><tspan x="236.728" y="51.553">Y</tspan></text></g><path d="M48 34.6825C48 26.2974 54.7974 19.5 63.1825 19.5H677.5C679.985 19.5 682 21.5147 682 24V24.5C682 24.5 681.105 24.5 680 24.5H60.6825C53.6781 24.5 48 29.0589 48 34.6825ZM682 499H48H682ZM48 499V22V499ZM682 22V499V22Z" fill="#F48024" mask="url(#path-3-inside-1_353_3804)"/><defs><filter id="filter0_dd_353_3804" x="42" y="17" width="679" height="60" filterUnits="userSpaceOnUse" color-interpolation-filters="sRGB"><feFlood flood-opacity="0" result="BackgroundImageFix"/><feColorMatrix in="SourceAlpha" type="matrix" values="0 0 0 0 0 0 0 0 0 0 0 0 0 0 0 0 0 0 127 0" result="hardAlpha"/><feOffset dy="1"/><feGaussianBlur stdDeviation="3"/><feColorMatrix type="matrix" values="0 0 0 0 0.231373 0 0 0 0 0.25098 0 0 0 0 0.270588 0 0 0 0.1 0"/><feBlend mode="normal" in2="BackgroundImageFix" result="effect1_dropShadow_353_3804"/><feColorMatrix in="SourceAlpha" type="matrix" values="0 0 0 0 0 0 0 0 0 0 0 0 0 0 0 0 0 0 127 0" result="hardAlpha"/><feOffset dy="1"/><feColorMatrix type="matrix" values="0 0 0 0 0.0470588 0 0 0 0 0.0509804 0 0 0 0 0.054902 0 0 0 0.1 0"/><feBlend mode="normal" in2="effect1_dropShadow_353_3804" result="effect2_dropShadow_353_3804"/><feBlend mode="normal" in="SourceGraphic" in2="effect2_dropShadow_353_3804" result="shape"/></filter><filter id="filter1_d_353_3804" x="58" y="95" width="42" height="42" filterUnits="userSpaceOnUse" color-interpolation-filters="sRGB"><feFlood flood-opacity="0" result="BackgroundImageFix"/><feColorMatrix in="SourceAlpha" type="matrix" values="0 0 0 0 0 0 0 0 0 0 0 0 0 0 0 0 0 0 127 0" result="hardAlpha"/><feOffset dy="1"/><feGaussianBlur stdDeviation="1.5"/><feColorMatrix type="matrix" values="0 0 0 0 0 0 0 0 0 0 0 0 0 0 0 0 0 0 0.15 0"/><feBlend mode="normal" in2="BackgroundImageFix" result="effect1_dropShadow_353_3804"/><feBlend mode="normal" in="SourceGraphic" in2="effect1_dropShadow_353_3804" result="shape"/></filter><clipPath id="clip0_353_3804"><path d="M48 34.6825C48 27.6781 53.6781 22 60.6825 22H680C681.105 22 682 22.8954 682 24V489C682 494.523 677.523 499 672 499H50C48.8954 499 48 498.105 48 497V34.6825Z" fill="#fff"/></clipPath></defs></svg>