<svg width="684" height="501" viewBox="0 0 684 501" fill="none" xmlns="http://www.w3.org/2000/svg"><path d="M61.68 22.85C54.5942 22.85 48.85 28.5942 48.85 35.68V498C48.85 499.187 49.8126 500.15 51 500.15H673C678.606 500.15 683.15 495.606 683.15 490V25C683.15 23.8126 682.187 22.85 681 22.85H61.68Z" stroke="#000" stroke-opacity=".3" stroke-width=".3"/><g clip-path="url(#clip0_353_3723)"><mask id="path-3-inside-1_353_3723" fill="#fff"><path d="M49 35.6825C49 28.6781 54.6781 23 61.6825 23H681C682.105 23 683 23.8954 683 25V490C683 495.523 678.523 500 673 500H51C49.8954 500 49 499.105 49 498V35.6825Z"/></mask><path d="M49 35.6825C49 28.6781 54.6781 23 61.6825 23H681C682.105 23 683 23.8954 683 25V490C683 495.523 678.523 500 673 500H51C49.8954 500 49 499.105 49 498V35.6825Z" fill="#fff"/><rect x="566.25" y="452" width="32" height="15" rx="2" fill="#F1F2F3"/><path d="M88.3818 58.0352V50.8533H91.075V60.7284H69.5293V50.8533H72.2225V58.0352H88.3818Z" fill="#BCBBBB"/><path d="M74.3786 50.944L86.5528 52.7036L86.6999 50.5664L74.7998 48.2804L74.3786 50.944ZM75.9926 44.8384L86.7654 49.8658L87.753 47.7112L76.9801 42.6839L75.9926 44.8384ZM79.0449 39.5418L88.2018 47.1726L89.728 45.3771L80.5711 37.7463L79.0449 39.5418ZM84.8802 33.9758L82.9949 35.4122L90.0871 44.9282L91.9723 43.4918L84.8802 33.9758ZM74.0176 56.2397H86.5859V53.5465H74.0176V56.2397Z" fill="#F48024"/><path d="M99.9697 50.7611L98.5057 50.5888C97.3862 50.5027 96.8695 50.0721 96.8695 49.2109C96.8695 48.2636 97.5584 47.6608 98.9363 47.6608C99.8836 47.6608 100.745 47.9192 101.348 48.3498L102.209 47.4886C101.348 46.7996 100.228 46.5413 98.9363 46.5413C96.9556 46.5413 95.5777 47.5747 95.5777 49.2109C95.5777 50.7611 96.525 51.5361 98.3335 51.7084L99.8836 51.8806C100.917 51.9667 101.434 52.3973 101.434 53.2585C101.434 54.378 100.486 54.8948 99.0224 54.8948C97.9029 54.8948 96.8695 54.6364 96.1805 53.8613L95.3193 54.7225C96.3528 55.6698 97.5584 56.0143 99.1085 56.0143C101.348 56.0143 102.812 54.9809 102.812 53.2585C102.639 51.5361 101.52 50.9333 99.9697 50.7611ZM111.423 46.6274C109.959 46.6274 109.012 46.8858 108.237 47.9192L109.098 48.7804C109.615 48.0053 110.218 47.7469 111.423 47.7469C113.06 47.7469 113.749 48.4359 113.749 49.7277V50.5888H110.993C108.926 50.5888 107.807 51.6223 107.807 53.2585C107.807 53.9475 108.065 54.6364 108.495 55.1531C109.098 55.7559 109.787 56.0143 111.079 56.0143C112.285 56.0143 112.974 55.7559 113.749 55.067V55.9282H115.127V49.7277C115.04 47.6608 113.835 46.6274 111.423 46.6274ZM113.749 52.6557C113.749 53.4307 113.576 53.9475 113.318 54.2058C112.715 54.7225 112.026 54.8086 111.251 54.8086C109.787 54.8086 109.184 54.2919 109.184 53.2585C109.184 52.2251 109.873 51.6223 111.251 51.6223H113.835L113.749 52.6557ZM120.294 47.8331C121.155 47.8331 121.672 48.0914 122.361 48.8665L123.222 48.0053C122.274 46.9719 121.499 46.6274 120.208 46.6274C117.882 46.6274 116.16 48.1775 116.16 51.3639C116.16 54.4642 117.882 56.1004 120.208 56.1004C121.499 56.1004 122.274 55.7559 123.222 54.7225L122.274 53.8613C121.585 54.6364 121.069 54.8948 120.208 54.8948C119.346 54.8948 118.571 54.5503 118.055 53.8613C117.624 53.2585 117.452 52.5696 117.452 51.3639C117.452 50.2444 117.624 49.4693 118.055 48.8665C118.657 48.1775 119.432 47.8331 120.294 47.8331ZM131.834 46.7135H130.197L126.064 50.7611V42.5798H124.686V55.8421H126.064V52.4834L127.7 50.8472L130.8 55.8421H132.436L128.647 49.8999L131.834 46.7135ZM138.12 46.4552C136.742 46.4552 135.795 46.9719 135.192 47.6608C134.331 48.522 134.073 49.6415 134.073 51.3639C134.073 53.0863 134.331 54.2058 135.192 55.067C135.795 55.6698 136.742 56.2727 138.12 56.2727C139.498 56.2727 140.531 55.7559 141.048 55.067C141.909 54.2058 142.168 53.0863 142.168 51.3639C142.168 49.6415 141.909 48.522 141.048 47.6608C140.531 46.9719 139.584 46.4552 138.12 46.4552ZM139.24 53.603C138.981 53.8613 138.637 54.0336 138.12 54.0336C137.603 54.0336 137.259 53.8613 137.001 53.603C136.484 53.0863 136.484 52.2251 136.484 51.2778C136.484 50.2444 136.57 49.4693 137.001 48.9526C137.259 48.6942 137.603 48.522 138.12 48.522C138.637 48.522 138.981 48.6942 139.24 48.9526C139.756 49.4693 139.756 50.2444 139.756 51.2778C139.843 52.3112 139.756 53.1724 139.24 53.603ZM148.54 46.5413L146.646 52.4834L144.665 46.5413H142.168L145.699 56.1004H147.593L151.124 46.5413H148.54ZM155.085 46.4552C152.588 46.4552 150.952 48.1775 150.952 51.3639C150.952 55.2392 153.105 56.2727 155.344 56.2727C157.066 56.2727 158.014 55.7559 158.961 54.8086L157.497 53.4307C156.894 54.0336 156.377 54.2919 155.344 54.2919C153.966 54.2919 153.277 53.4307 153.277 52.139H159.219V51.1056C159.219 48.3498 157.755 46.4552 155.085 46.4552ZM153.277 50.4166C153.277 49.986 153.363 49.7277 153.535 49.3832C153.794 48.7804 154.31 48.3498 155.172 48.3498C155.947 48.3498 156.55 48.7804 156.808 49.3832C156.98 49.7277 156.98 49.986 157.066 50.4166H153.277ZM162.75 47.4886V46.5413H160.425V56.1004H162.836V50.3305C162.836 49.1248 163.611 48.6081 164.386 48.6081C164.989 48.6081 165.247 48.7804 165.678 49.2109L167.487 47.4025C166.798 46.7135 166.195 46.5413 165.247 46.5413C164.128 46.4552 163.267 46.8858 162.75 47.4886ZM167.588 45.5079V56.1004H170V48.522H171.722V46.7135H170V45.6801C170 45.1634 170.258 44.8189 170.861 44.8189H171.808V42.8382H170.43C168.45 42.8382 167.588 44.2161 167.588 45.5079ZM182.127 46.4552C180.749 46.4552 179.801 46.9719 179.199 47.6608C178.337 48.522 178.079 49.6415 178.079 51.3639C178.079 53.0863 178.337 54.2058 179.199 55.067C179.801 55.6698 180.749 56.2727 182.127 56.2727C183.505 56.2727 184.538 55.7559 185.055 55.067C185.916 54.2058 186.174 53.0863 186.174 51.3639C186.174 49.6415 185.916 48.522 185.055 47.6608C184.538 46.9719 183.505 46.4552 182.127 46.4552ZM183.246 53.603C182.988 53.8613 182.643 54.0336 182.127 54.0336C181.61 54.0336 181.265 53.8613 181.007 53.603C180.49 53.0863 180.49 52.2251 180.49 51.2778C180.49 50.2444 180.577 49.4693 181.007 48.9526C181.265 48.6942 181.61 48.522 182.127 48.522C182.643 48.522 182.988 48.6942 183.246 48.9526C183.763 49.4693 183.763 50.2444 183.763 51.2778C183.763 52.3112 183.763 53.1724 183.246 53.603ZM197.456 46.5413L195.906 52.4834L193.925 46.5413H192.203L190.222 52.4834L188.672 46.5413H186.174L189.102 56.1004H191.083L193.064 50.0721L195.044 56.1004H197.025L199.953 46.5413H197.456ZM175.401 53.1724V42.7521H172.99V53.3446C172.99 54.7225 173.851 56.1004 175.745 56.1004H177.123V54.1197H176.262C175.659 54.1197 175.401 53.7752 175.401 53.1724ZM106.342 48.1775L107.548 46.9719H104.965V43.9577H103.587V53.5169C103.587 54.8948 104.362 56.0143 105.912 56.0143H106.859V54.8948H106.17C105.309 54.8948 104.878 54.378 104.878 53.5169V48.2636L106.342 48.1775Z" fill="#222426"/><line x1="685" y1="71.5" x2="48" y2="71.5" stroke="#D5D9DC"/><path d="M321.5 40.5C321.5 37.1863 324.186 34.5 327.5 34.5H719.021C722.334 34.5 725.021 37.1863 725.021 40.5V56.5C725.021 59.8137 722.334 62.5 719.021 62.5H327.5C324.186 62.5 321.5 59.8137 321.5 56.5V40.5Z" fill="#fff" stroke="#D6D9DC"/><text fill="#9FA6AD" xml:space="preserve" font-family="Arial" font-size="11.671" letter-spacing="0em" white-space="pre"><tspan x="350.664" y="52.456">Search…</tspan></text><path fill-rule="evenodd" clip-rule="evenodd" d="M345.198 55.1161L340.588 50.4667L340.268 50.4664C341.107 49.3982 341.607 48.0513 341.607 46.5876C341.607 43.117 338.794 40.3035 335.323 40.3035C331.853 40.3035 329.039 43.117 329.039 46.5876C329.039 50.0583 331.853 52.8718 335.323 52.8718C336.788 52.8718 338.135 52.371 339.203 51.5313V51.852L343.852 56.4627L345.198 55.1161ZM339.812 46.5876C339.812 49.0667 337.802 51.0763 335.323 51.0763C332.844 51.0763 330.835 49.0667 330.835 46.5876C330.835 44.1086 332.844 42.0989 335.323 42.0989C337.802 42.0989 339.812 44.1086 339.812 46.5876Z" fill="#9FA6AD"/><text fill="#2F3337" xml:space="preserve" font-family="Arial" font-size="27" letter-spacing="0em" white-space="pre"><tspan x="254" y="118.36">How do I exit Vim?</tspan></text><text fill="#2F3337" xml:space="preserve" font-family="Arial" font-size="12" letter-spacing="0em" white-space="pre"><tspan x="287.363" y="143.66">11 years ago</tspan></text><text fill="#6A737C" xml:space="preserve" font-family="Arial" font-size="12" letter-spacing="0em" white-space="pre"><tspan x="254" y="143.66">Asked</tspan></text><text fill="#2F3337" xml:space="preserve" font-family="Arial" font-size="12" letter-spacing="0em" white-space="pre"><tspan x="426.738" y="143.66">13 days ago</tspan></text><text fill="#6A737C" xml:space="preserve" font-family="Arial" font-size="12" letter-spacing="0em" white-space="pre"><tspan x="378" y="143.66">Modified</tspan></text><text fill="#2F3337" xml:space="preserve" font-family="Arial" font-size="12" letter-spacing="0em" white-space="pre"><tspan x="553.504" y="143.66">2.9m times</tspan></text><text fill="#6A737C" xml:space="preserve" font-family="Arial" font-size="12" letter-spacing="0em" white-space="pre"><tspan x="511" y="143.66">Viewed</tspan></text><line x1="254" y1="167.5" x2="683" y2="167.5" stroke="#E4E6E8"/><rect x="255" y="193.5" width="41" height="41" rx="20.5" stroke="#D6D9DC"/><path d="M267.5 217H283.5L275.5 209L267.5 217Z" fill="#3C4146"/><text fill="#3C4146" xml:space="preserve" font-family="Arial" font-size="19" font-weight="bold" letter-spacing="0em" white-space="pre"><tspan x="254.348" y="259.587">5350</tspan></text><rect x="255" y="271.5" width="41" height="41" rx="20.5" stroke="#D6D9DC"/><path d="M267.5 289H283.5L275.5 297L267.5 289Z" fill="#3C4146"/><path fill-rule="evenodd" clip-rule="evenodd" d="M275.5 341.596L279.5 344.263V334H271.5V344.263L275.5 341.596ZM269.5 348V334C269.5 332.895 270.395 332 271.5 332H279.5C280.605 332 281.5 332.895 281.5 334V348L275.5 344L269.5 348Z" fill="#BABFC6"/><path d="M269 370C269.001 368.226 269.592 366.502 270.68 365.1C271.767 363.698 273.29 362.698 275.009 362.257C276.728 361.815 278.544 361.957 280.173 362.661C281.802 363.365 283.15 364.59 284.007 366.144C284.863 367.698 285.178 369.493 284.903 371.246C284.628 372.999 283.777 374.611 282.486 375.827C281.195 377.044 279.535 377.797 277.769 377.968C276.003 378.138 274.23 377.717 272.73 376.77L274.2 375.3C275.36 375.912 276.688 376.127 277.981 375.913C279.275 375.698 280.463 375.066 281.363 374.112C282.263 373.158 282.826 371.936 282.966 370.632C283.105 369.328 282.814 368.015 282.136 366.892C281.458 365.77 280.432 364.9 279.213 364.416C277.994 363.933 276.65 363.862 275.387 364.214C274.124 364.567 273.011 365.323 272.219 366.368C271.427 367.413 270.998 368.689 271 370L274.01 369.99L270.01 373.99L266.01 369.99H269.01L269 370ZM276 366H277.01L277 370.36L280.22 372.46L279.62 373.39L276 371V366Z" fill="#BABFC6"/><text fill="#2F3337" xml:space="preserve" font-family="Arial" font-size="14" letter-spacing="0em" white-space="pre"><tspan x="319" y="206.854">I am stuck and cannot escape. It says:</tspan></text><text fill="#2F3337" xml:space="preserve" font-family="Arial" font-size="14" letter-spacing="0em" white-space="pre"><tspan x="319" y="281.854">But when I type that it simply appears in the object body.</tspan></text><text fill="#838D96" xml:space="preserve" font-family="Arial" font-size="12" letter-spacing="0em" white-space="pre"><tspan x="319" y="371.66">Share Edit Follow Flag</tspan></text><rect x="319" y="226" width="371" height="27" rx="3" fill="#F1F2F3"/><text fill="#2F3337" xml:space="preserve" font-family="Monaco" font-size="12" letter-spacing="0em" white-space="pre"><tspan x="331" y="244">type :quit&lt;Enter&gt; to quit VIM</tspan></text><rect x="319" y="315" width="29" height="24" rx="4" fill="#F1F2F3"/><text fill="#3B4045" xml:space="preserve" font-family="Arial" font-size="12" font-weight="bold" letter-spacing="0em" white-space="pre"><tspan x="323" y="331.16">vim</tspan></text><rect x="351" y="315" width="19" height="24" rx="4" fill="#F1F2F3"/><text fill="#3B4045" xml:space="preserve" font-family="Arial" font-size="12" font-weight="bold" letter-spacing="0em" white-space="pre"><tspan x="355" y="331.16">vi</tspan></text><line x1="319" y1="403.772" x2="685" y2="403.772" stroke="#E4E6E8"/><text fill="#2F3337" xml:space="preserve" font-family="Arial" font-size="11" letter-spacing="0em" white-space="pre"><tspan x="375.5" y="421.085">Are you just trying to quit VIM ? If this is the case, press &quot;escape&quot; and then type &apos;:q&apos;</tspan></text><text fill="#9FA6AD" xml:space="preserve" font-family="Arial" font-size="11" letter-spacing="0em" white-space="pre"><tspan x="375.5" y="434.085">Aug 6, 2012 at 12:28</tspan></text><path d="M348 420.272H364L356 412.272L348 420.272Z" fill="#DCDEE1"/><path fill-rule="evenodd" clip-rule="evenodd" d="M351 428.272V438.272H353V434.272H355.6L356 435.272H360V429.272H356.5L356 428.272H351Z" fill="#DCDEE1"/><text fill="#DA670B" xml:space="preserve" font-family="Arial" font-size="11" letter-spacing="0em" white-space="pre"><tspan x="319.631" y="421.085">206</tspan></text><line x1="319" y1="445.772" x2="683" y2="445.772" stroke="#F1F2F3"/><text fill="#2F3337" xml:space="preserve" font-family="Arial" font-size="11" letter-spacing="0em" white-space="pre"><tspan x="375.5" y="463.022">Don&apos;t forget the colon! You should type </tspan><tspan x="596.783" y="463.022"> and then hit the [ENTER] key.</tspan></text><text fill="#2F3337" xml:space="preserve" font-family="Monaco" font-size="10" letter-spacing="0em" white-space="pre"><tspan x="566.754" y="463.022">:quit</tspan></text><text fill="#9FA6AD" xml:space="preserve" font-family="Arial" font-size="11" letter-spacing="0em" white-space="pre"><tspan x="375.5" y="476.022">Mar 4, 2014 at 18:33</tspan></text><path d="M348 462.272H364L356 454.272L348 462.272Z" fill="#DCDEE1"/><path fill-rule="evenodd" clip-rule="evenodd" d="M351 470.272V480.272H353V476.272H355.6L356 477.272H360V471.272H356.5L356 470.272H351Z" fill="#DCDEE1"/><text fill="#DA670B" xml:space="preserve" font-family="Arial" font-size="11" letter-spacing="0em" white-space="pre"><tspan x="325.754" y="463.085">74</tspan></text></g><path d="M49 35.6825C49 27.2974 55.7974 20.5 64.1825 20.5H678.5C680.985 20.5 683 22.5147 683 25V25.5C683 25.5 682.105 25.5 681 25.5H61.6825C54.6781 25.5 49 30.0589 49 35.6825ZM683 500H49H683ZM49 500V23V500ZM683 23V500V23Z" fill="#F48024" mask="url(#path-3-inside-1_353_3723)"/><path fill-rule="evenodd" clip-rule="evenodd" d="M88.5293 105V110C88.5293 111.105 87.6273 112 86.5208 112H78.5378C77.4285 112 76.5293 111.113 76.5293 110V105H73.5293L82.5293 96L91.5293 105H88.5293ZM80.5293 106V112H84.5293V106H80.5293Z" fill="#3B4045"/><text fill="#3B4045" xml:space="preserve" font-family="Arial" font-size="13" letter-spacing="0em" white-space="pre"><tspan x="99.529" y="108.507">Home</tspan></text><path d="M65.5293 129C65.5293 125.686 68.2156 123 71.5293 123H229.529V153H71.5293C68.2156 153 65.5293 150.314 65.5293 147V129Z" fill="#F1F2F3"/><path d="M77.5293 144L74.5293 147V133C74.5293 131.9 75.4293 131 76.5293 131H88.5293C89.6186 131 90.5293 131.911 90.5293 133V142C90.5293 143.089 89.6186 144 88.5293 144H77.5293ZM85.2793 140.03C85.9974 139.2 86.2593 138.175 86.2593 137.09C86.2593 135.439 85.552 133.875 83.9531 133.259C83.0284 132.903 81.8612 132.905 80.9361 133.259C79.3898 133.85 78.5191 135.461 78.6193 137.09C78.6193 138.38 78.9693 139.38 79.6493 140.09C80.3977 140.824 81.4525 141.22 82.4993 141.16C83.1193 141.16 83.6993 141.05 84.2093 140.82C84.8593 141.26 85.2093 141.5 85.2693 141.52C85.4993 141.65 85.7293 141.75 85.9693 141.82L86.5593 140.69C86.1041 140.53 85.6733 140.308 85.2793 140.03ZM84.0093 139.13C83.5547 138.786 83.0484 138.516 82.5093 138.33L82.0593 139.23C82.3893 139.35 82.7193 139.52 83.0393 139.73C82.8393 139.8 82.6193 139.84 82.3893 139.84C81.7793 139.84 81.2693 139.61 80.8693 139.16C80.0057 138.167 80.0057 136.043 80.8693 135.05C81.6703 134.149 83.2184 134.148 84.0193 135.05C84.9215 136.065 84.884 138.08 84.0093 139.13Z" fill="#3B4045"/><text fill="#0C0D0E" xml:space="preserve" font-family="Arial" font-size="13" font-weight="bold" letter-spacing="0em" white-space="pre"><tspan x="99.529" y="142.507">Questions</tspan></text><path d="M74.5293 169L82.5293 164L90.5293 169V177H88.5293V170.09L82.5293 174L74.5293 169Z" fill="#3C4146"/><path d="M82.5293 179.82L76.5293 176V172L82.5293 175.82L87.5293 172.5V176.5L82.5293 179.82Z" fill="#3C4146"/><text fill="#3C4146" xml:space="preserve" font-family="Arial" font-size="13" letter-spacing="0em" white-space="pre"><tspan x="99.529" y="176.507">Staging Ground</tspan></text><path opacity=".4" d="M82.7716 198C81.976 198 81.2129 198.316 80.6503 198.879L74.9432 204.586C74.3186 205.21 74.1935 206.145 74.5678 206.894C74.7142 206.524 74.937 206.178 75.2361 205.879L81.2361 199.879C81.7987 199.316 82.5618 199 83.3574 199H87.529C87.8021 199 88.0666 199.036 88.318 199.105C87.9895 198.45 87.3118 198 86.529 198H82.7716Z" fill="#0C0D0E"/><path fill-rule="evenodd" clip-rule="evenodd" d="M83.3574 200C82.827 200 82.3183 200.211 81.9432 200.586L75.9432 206.586C75.1622 207.367 75.1622 208.633 75.9432 209.414L80.1148 213.586C80.8958 214.367 82.1622 214.367 82.9432 213.586L88.9432 207.586C89.3183 207.211 89.529 206.702 89.529 206.172V202C89.529 200.895 88.6336 200 87.529 200L83.3574 200ZM85.529 206C84.4244 206 83.529 205.105 83.529 204C83.529 202.895 84.4244 202 85.529 202C86.6336 202 87.529 202.895 87.529 204C87.529 205.105 86.6336 206 85.529 206Z" fill="#3B4045"/><text fill="#3B4045" xml:space="preserve" font-family="Arial" font-size="13" letter-spacing="0em" white-space="pre"><tspan x="99.529" y="210.507">Tags</tspan></text><path fill-rule="evenodd" clip-rule="evenodd" d="M76.5293 268V254C76.5293 252.895 77.4247 252 78.5293 252H86.5293C87.6339 252 88.5293 252.895 88.5293 254V268L82.5293 264L76.5293 268Z" fill="#3B4045"/><text fill="#3B4045" xml:space="preserve" font-family="Arial" font-size="13" letter-spacing="0em" white-space="pre"><tspan x="99.529" y="264.507">Saves</tspan></text><path d="M90.5293 298.999C90.5293 299.438 90.0793 299.999 89.5293 299.999H82.5243C81.9853 299.999 81.5303 299.552 81.5293 299H75.5293C74.9893 299 74.5293 298.439 74.5293 298C74.5293 295.366 77.5293 294 77.5293 294C77.5293 294 77.7583 293.591 77.5293 293C76.6883 292.379 76.4713 292.41 76.5293 290C76.5873 287.581 77.8963 287 79.0293 287C80.1623 287 81.4713 287.58 81.5293 290C81.5873 292.41 81.3703 292.379 80.5293 293C80.3003 293.59 80.5293 294 80.5293 294C80.5293 294 82.0783 294.711 82.9493 296.088C83.7253 295.369 84.5293 294.999 84.5293 294.999C84.5293 294.999 84.7583 294.59 84.5293 293.999C83.6883 293.379 83.4713 293.409 83.5293 290.999C83.5873 288.58 84.8963 287.999 86.0293 287.999C87.1623 287.999 88.4663 288.58 88.5243 290.999C88.5833 293.409 88.3663 293.379 87.5243 293.999C87.2953 294.589 87.5243 294.999 87.5243 294.999C87.5243 294.999 90.5293 296.365 90.5293 298.999Z" fill="#3B4045"/><text fill="#3B4045" xml:space="preserve" font-family="Arial" font-size="13" letter-spacing="0em" white-space="pre"><tspan x="99.529" y="298.507">Users</tspan></text><rect width="18" height="18" transform="translate(73.5293 319)" fill="#fff"/><path d="M83.5293 335V331H81.5293V335H75.5293V323C75.5293 321.9 76.4293 321 77.5293 321H83.5293C84.6186 321 85.5293 321.911 85.5293 323V325H87.5293C88.6186 325 89.5293 325.911 89.5293 327V335H83.5293ZM77.5293 323V325H79.5293V323H77.5293ZM77.5293 327V329H79.5293V327H77.5293ZM81.5293 323V325H83.5293V323H81.5293ZM81.5293 327V329H83.5293V327H81.5293ZM77.5293 331V333H79.5293V331H77.5293ZM85.5293 331V333H87.5293V331H85.5293ZM85.5293 327V329H87.5293V327H85.5293Z" fill="#3B4045"/><text fill="#3B4045" xml:space="preserve" font-family="Arial" font-size="13" letter-spacing="0em" white-space="pre"><tspan x="99.529" y="332.507">Companies</tspan></text><text fill="#0C0D0E" xml:space="preserve" font-family="Arial" font-size="11" font-weight="bold" letter-spacing="0em" white-space="pre"><tspan x="73.529" y="385.813">COLLECTIVES</tspan></text><path fill-rule="evenodd" clip-rule="evenodd" d="M215.529 377H213.529V381H209.529V383H213.529V387H215.529V383H219.529V381H215.529V377Z" fill="#636C74"/><g clip-path="url(#clip1_353_3723)"><g clip-path="url(#clip2_353_3723)"><path d="M87.5293 404H75.5293C74.4247 404 73.5293 404.895 73.5293 406V418C73.5293 419.105 74.4247 420 75.5293 420H87.5293C88.6339 420 89.5293 419.105 89.5293 418V406C89.5293 404.895 88.6339 404 87.5293 404Z" fill="#3171AB"/></g><text fill="#fff" xml:space="preserve" font-family="Arial" font-size="7" font-weight="bold" letter-spacing="0em" white-space="pre"><tspan x="74.551" y="415.052">NLP</tspan></text></g><text fill="#3B4045" xml:space="preserve" font-family="Arial" font-size="13" letter-spacing="0em" white-space="pre"><tspan x="97.529" y="416.507">NLP</tspan></text><g clip-path="url(#clip3_353_3723)"><g clip-path="url(#clip4_353_3723)"><path d="M87.5293 438H75.5293C74.4247 438 73.5293 438.895 73.5293 440V452C73.5293 453.105 74.4247 454 75.5293 454H87.5293C88.6339 454 89.5293 453.105 89.5293 452V440C89.5293 438.895 88.6339 438 87.5293 438Z" fill="#7E6F3A"/></g><text fill="#fff" xml:space="preserve" font-family="Arial" font-size="7" font-weight="bold" letter-spacing="0em" white-space="pre"><tspan x="76.11" y="449.052">MD</tspan></text></g><text fill="#3C4146" xml:space="preserve" font-family="Arial" font-size="13" letter-spacing="0em" white-space="pre"><tspan x="97.529" y="450.507">Mobile Development</tspan></text><rect x="229.529" y="71" width="1" height="429" fill="#D6D9DC"/><defs><clipPath id="clip0_353_3723"><path d="M49 35.6825C49 28.6781 54.6781 23 61.6825 23H681C682.105 23 683 23.8954 683 25V490C683 495.523 678.523 500 673 500H51C49.8954 500 49 499.105 49 498V35.6825Z" fill="#fff"/></clipPath><clipPath id="clip1_353_3723"><rect width="16" height="16" fill="#fff" transform="translate(73.5293 404)"/></clipPath><clipPath id="clip2_353_3723"><rect width="16.052" height="16" fill="#fff" transform="translate(73.5293 404)"/></clipPath><clipPath id="clip3_353_3723"><rect width="16" height="16" fill="#fff" transform="translate(73.5293 438)"/></clipPath><clipPath id="clip4_353_3723"><rect width="16.052" height="16" fill="#fff" transform="translate(73.5293 438)"/></clipPath></defs></svg>